/* XPM */
static char * dstretch_xpm[] = {
"22 22 4 1",
" 	c None",
"w	c #ffffffffffff",
".	c #000000000000",
"X	c #636363636363",
"                      ",
"                      ",
"                      ",
"                      ",
"                      ",
"                      ",
"   ..            ..   ",
"  ..              ..  ",
" ..                .. ",
"......................",
"......................",
" ..                .. ",
"  ..              ..  ",
"   ..            ..   ",
"                      ",
"                      ",
"                      ",
"                      ",
"                      ",
"                      ",
"                      ",
"                      "};
