/* XPM */
static char * qgroupbox_xpm[] = {
"22 22 4 1",
"a      c None",
" 	c #ffffffffffff",
".	c #000000000000",
"X	c #636363636363",
"aaaaaaaaaaaaaaaaaaaaaa",
"aaaaaaa...aaaaaaaaaaaa",
"aaXXXa.a.aa..aXXXXXXXa",
"aaX   .  . .        Xa",
"aaX    ... .        Xa",
"aaX                 Xa",
"aaX                 Xa",
"aaX                 Xa",
"aaX                 Xa",
"aaX                 Xa",
"aaX                 Xa",
"aaX                 Xa",
"aaX                 Xa",
"aaX                 Xa",
"aaX                 Xa",
"aaX                 Xa",
"aaX                 Xa",
"aaX                 Xa",
"aaX                 Xa",
"aaX                 Xa",
"aaXXXXXXXXXXXXXXXXXXXa",
"aaaaaaaaaaaaaaaaaaaaaa"};
