/* XPM */
static char * qlinedit_xpm[] = {
"22 22 4 1",
"a	c None",
" 	c white",
".	c black",
"X	c blue",
"aaaaaaaaaaaaaaaaaaaaaa",
"a....................a",
"a.                  .a",
"a. XXXXXXXXXXXX     .a",
"a.                  .a",
"a.                  .a",
"a. XXXXXXX          .a",
"a.                  .a",
"a.                  .a",
"a. XXXXXXXXXXXXXXX  .a",
"a.                  .a",
"a.                  .a",
"a. XXXXX            .a",
"a.                  .a",
"a.                  .a",
"a. XXXXXXXXXXXXXXX  .a",
"a.                  .a",
"a.                  .a",
"a. XXXXXXXXXXX      .a",
"a.                  .a",
"a....................a",
"aaaaaaaaaaaaaaaaaaaaaa"};
