/* XPM */
static char * qpushbutton_xpm[] = {
"22 22 4 1",
" 	c #FFFFFFFFFFFF",
".	c #9C9C9C9C9C9C",
"X	c #E3E3E3E3E3E3",
"o	c #000000000000",
"                      ",
"                     .",
"  XXXXXXXXXXXXXXXXXX..",
"  XXXXXXXXXXXXXXXXXX..",
"  XXXXXXXXXXXXXXXXXX..",
"  XXXXXXXXXXXXXXXXXX..",
"  XXXXoooXXXXoXXXXXX..",
"  XXXoXXXoXXooXXXXXX..",
"  XXoXXXXXoXXoXXXXXX..",
"  XXoXXXXXoXXoXXoXXX..",
"  XXoXXXXXoXXoXoXXXX..",
"  XXoXXXXXoXXooXXXXX..",
"  XXoXXXXXoXXoXoXXXX..",
"  XXXoXXXoXXXoXXoXXX..",
"  XXXXoooXXXooXXooXX..",
"  XXXXXXXXXXXXXXXXXX..",
"  XXXXXXXXXXXXXXXXXX..",
"  XXXXXXXXXXXXXXXXXX..",
"  XXXXXXXXXXXXXXXXXX..",
"  XXXXXXXXXXXXXXXXXX..",
"  ....................",
" ....................."};
