/* XPM */
static char * qtabwidget_xpm[] = {
"22 22 3 1",
" 	c None",
".	c #8E8E8E8E8E8E",
"X	c #FFFFFFFFFFFF",
"                      ",
"                      ",
"                      ",
"     ......           ",
"    .XXXXXX.          ",
"   .XXXXXXXX.         ",
"   .XXXXXXXX.         ",
" .................... ",
" .XXXXXXXXXXXXXXXXXX. ",
" .XXXXXXXXXXXXXXXXXX. ",
" .XXXXXXXXXXXXXXXXXX. ",
" .XXXXXXXXXXXXXXXXXX. ",
" .XXXXXXXXXXXXXXXXXX. ",
" .XXXXXXXXXXXXXXXXXX. ",
" .XXXXXXXXXXXXXXXXXX. ",
" .XXXXXXXXXXXXXXXXXX. ",
" .XXXXXXXXXXXXXXXXXX. ",
" .XXXXXXXXXXXXXXXXXX. ",
" .XXXXXXXXXXXXXXXXXX. ",
" .XXXXXXXXXXXXXXXXXX. ",
" .................... ",
"                      "};
