/* XPM */
static char *title[] = {
/* width height num_colors chars_per_pixel */
"    66    20       14            1",
/* colors */
". c #000000",
"# c #212121",
"a c #676767",
"b c #8c8c8c",
"c c #9c9c9c",
"d c #adadad",
"e c #bdbdbd",
"f c #c0c0c0",
"g c #cccdcc",
"h c #cdcecd",
"i c #cecece",
"j c #dedede",
"k c #efefef",
"l c #ffffff",
/* pixels */
"iiiiiiiiiiiiiiiiiiiiiiiiiiiiiiiiiiiiiiiiiiiiiiiiiiiiiiiiiiiiiiiiii",
"iiiiiiiiiiiiiiiiiiiiiiiiiiiiiiiiiiiiiiiiiiiiiiiiiiiiiiiiiiiiiiiiii",
"iiiiiiiiiiiiiiiiiiiiiiiiiiiiiiiiiiiiiiiiiiiiiiiiiiiiiiiiiiiiiiiiii",
"iiiiiiiiiiiiiiiiiiiiiiiiiiiiiiiiiiiiiiiiiiiiiiiiiiiiiiiiiiiiiiiiii",
"iiiiibbbbbbbbbbbbiiiiiiiibbbbbbbbbbbbiiiiiiiiiibbbbbbbbbbbbiiiiiii",
"iiiiib###########liiiiiiib###########liiiiiiiiib###########liiiiii",
"iiiiib#liiiiiiii#liiiiiiib#liiii#iii#liiiiiiiiib#liiiiiiii#liiiiii",
"iiiiib#iccddeeib#liiiiiiib#iccdd#eib#liiiiiiiiib#iccddeeib#liiiiii",
"iiiiib#icddeeiib#liiiiiiib#icdde#iib#liiiiiiiiib#icddeeiib#liiiiii",
"iiiiib###########liiiiiiib#iddee#ijb#liiiiiiiiib#iddeeiijb#liiiiii",
"iiiiib#ideeiijjb#liiiiiiib#ideei#jjb#liiiiiiiiib#ideeiijjb#liiiiii",
"iiiiib###########liiiiiiib#######jkb#liiiiiiiiib#ieeiijjkb#liiiiii",
"iiiiib#ieiijjkkb#liiiiiiib#ieiijjkkb#liiiiiiiiib#ieiijjkkb#liiiiii",
"iiiiib#iiijjkklb#liiiiiiib#iiijjkklb#liiiiiiiiib#iiijjkklb#liiiiii",
"iiiiib#ibbbbbbbb#liiiiiiib#ibbbbbbbb#liiiiiiiiib#ibbbbbbbb#liiiiii",
"iiiiib###########liiiiiiib###########liiiiiiiiib###########liiiiii",
"iiiiiilllllllllllliiiiiiiilllllllllllliiiiiiiiiilllllllllllliiiiii",
"iiiiiiiiiiiiiiiiiiiiiiiiiiiiiiiiiiiiiiiiiiiiiiiiiiiiiiiiiiiiiiiiii",
"iiiiiiiiiiiiiiiiiiiiiiiiiiiiiiiiiiiiiiiiiiiiiiiiiiiiiiiiiiiiiiiiii",
"iiiiiiiiiiiiiiiiiiiiiiiiiiiiiiiiiiiiiiiiiiiiiiiiiiiiiiiiiiiiiiiiii"
};
