/* XPM */
static char *title2[] = {
/* width height num_colors chars_per_pixel */
"    44    20       41            1",
/* colors */
". c #00008c",
"# c #0000ad",
"a c #00319c",
"b c #004200",
"c c #007300",
"d c #008c00",
"e c #00bd00",
"f c #212121",
"g c #3163ce",
"h c #424242",
"i c #630000",
"j c #633163",
"k c #63ff63",
"l c #8c0000",
"m c #8c8c8c",
"n c #9c319c",
"o c #9c6331",
"p c #9c9c9c",
"q c #9cce63",
"r c #adadad",
"s c #bd0000",
"t c #cccdcc",
"u c #cdcecd",
"v c #ce319c",
"w c #ce6300",
"x c #cecece",
"y c #ceff9c",
"z c #de0000",
"A c #dedede",
"B c #e8e8e8",
"C c #ececec",
"D c #efefef",
"E c #ff009c",
"F c #ff6300",
"G c #ff9c31",
"H c #ff9cce",
"I c #ffce31",
"J c #ffce9c",
"K c #ffff00",
"L c #ffffce",
"M c #ffffff",
/* pixels */
"xxxxxxxxxxxxxxxxxxxxxxxxxxxxxxxxxxxxxxxxxxxx",
"xxxxxxxxxxxxxxxxxxxxxxxxxxxxxxxxxxxxxxxxxxxx",
"xxxxxxxxxxxxxedxxxxxxxxxxxxxxxxxxxxxxxxxxxxx",
"xxxxxxxxxxxxebqhxxxxxxxxxxxxxxxxxxxxxxxxxxxx",
"xxxxxxxxxxxxdqhxxxxxxxxxxxxxxmmmxxxxxmxxxxxx",
"xxxxxxxxeedxxeedxxxxxxxxxxxxxmffmxxxmfMxxxxx",
"xxxxxxxdykeeeddchxxxxxxxxxxxxmfxfmmmffMxxxxx",
"xxxxxxIMMKKIIGGohhxxxxxxrmmmmmfMxfffxfMxxxxx",
"xxxxxxIMKKKIIGohhxxxxxxxDMMMMMfBDmDmMfMxxxxx",
"xxxxxxwLFFFFwwohxxxxxxxxmpppppfBMDMDAfMxxxxx",
"xxxxxxwJFFFFFwooxxxxxxxxmffffffBpmpmrfMxxxxx",
"xxxxxxsHzzzzzsslixxxxxxxxDDDDxfppfffmfMxxxxx",
"xxxxxxxvEEEEEvvnjhxxxxxxxxxxxmfmfMMMffMxxxxx",
"xxxxxxxvvEEEvvnjnhxxxxxxxxxxxmffDxxxMfMxxxxx",
"xxxxxxxx#gg.agg.hhxxxxxxxxxxxxMDxxxxxDDxxxxx",
"xxxxxxxxx..hh..hhxxxxxxxxxxxxxxxxxxxxxxxxxxx",
"xxxxxxxxxxhhxxhhxxxxxxxxxxxxxxxxxxxxxxxxxxxx",
"xxxxxxxxxxxxxxxxxxxxxxxxxxxxxxxxxxxxxxxxxxxx",
"xxxxxxxxxxxxxxxxxxxxxxxxxxxxxxxxxxxxxxxxxxxx",
"xxxxxxxxxxxxxxxxxxxxxxxxxxxxxxxxxxxxxxxxxxxx"
};
