/* XPM */
static char *qtlogo[] = {
/* width height num_colors chars_per_pixel */
"    61    32      252            2",
/* colors */
".. c #000000",
".# c #788078",
".a c #384038",
".b c #c0c4c0",
".c c #a0a098",
".d c #101098",
".e c #4044a0",
".f c #e0e4c8",
".g c #6060a0",
".h c #98a4d0",
".i c #182020",
".j c #282880",
".k c #8880c8",
".l c #c8d0c8",
".m c #687098",
".n c #606460",
".o c #e8f0e8",
".p c #080c48",
".q c #909088",
".r c #a8b0b8",
".s c #081008",
".t c #2028b8",
".u c #6064d0",
".v c #b0b0c8",
".w c #b8c4e8",
".x c #d8d8d0",
".y c #201cb0",
".z c #6064b8",
".A c #a8a4a8",
".B c #404470",
".C c #202450",
".D c #687060",
".E c #e8e4f8",
".F c #000028",
".G c #8084a0",
".H c #504cd0",
".I c #f0f0e8",
".J c #9094c0",
".K c #7070d0",
".L c #382cc8",
".M c #485050",
".N c #9090a8",
".O c #303430",
".P c #c8d4e0",
".Q c #080808",
".R c #b8b4c8",
".S c #f8fce8",
".T c #c8c8e0",
".U c #5054a8",
".V c #887cc0",
".W c #2020c8",
".X c #383488",
".Y c #b0b4b0",
".Z c #2828c8",
".0 c #c8ccc0",
".1 c #a8a8c8",
".2 c #7074b8",
".3 c #181018",
".4 c #6868b8",
".5 c #606080",
".6 c #a8a8b8",
".7 c #888888",
".8 c #686ca0",
".9 c #b8b8b0",
"#. c #282470",
"## c #d0e0f8",
"#a c #484848",
"#b c #a0a4b8",
"#c c #282828",
"#d c #e8ece8",
"#e c #8084e8",
"#f c #787878",
"#g c #d8d0f0",
"#h c #d0d8e8",
"#i c #100800",
"#j c #605cb0",
"#k c #989898",
"#l c #3034b0",
"#m c #8888a0",
"#n c #888cc8",
"#o c #101428",
"#p c #a8b0e8",
"#q c #9094e0",
"#r c #9898a8",
"#s c none",
"#t c #c8c8f0",
"#u c #f0ecf8",
"#v c #c8c4c8",
"#w c #182080",
"#x c #f0f4f0",
"#y c #080810",
"#z c #c0bcf8",
"#A c #b0b4b8",
"#B c #a0a898",
"#C c #282898",
"#D c #d0d4d0",
"#E c #686868",
"#F c #c0cce0",
"#G c #3024b8",
"#H c #d0d0e8",
"#I c #3024d0",
"#J c #706cb8",
"#K c #e0ecf8",
"#L c #000010",
"#M c #788090",
"#N c #a0a8f0",
"#O c #787ca0",
"#P c #2824b0",
"#Q c #a8aca8",
"#R c #585c58",
"#S c #2824c0",
"#T c #3830a0",
"#U c #a8a4f8",
"#V c #787cb8",
"#W c #706ca0",
"#X c #c0c4d0",
"#Y c #302cb0",
"#Z c #b0b8d0",
"#0 c #6864b8",
"#1 c #303448",
"#2 c #383c38",
"#3 c #b8bcc8",
"#4 c #5858a8",
"#5 c #a8acb8",
"#6 c #a09ca8",
"#7 c #404458",
"#8 c #a0a4a0",
"#9 c #4848a0",
"a. c #505070",
"a# c #5054d0",
"aa c #7874d0",
"ab c #282868",
"ac c #201c28",
"ad c #9894c0",
"ae c #6868d0",
"af c #686890",
"ag c #909ce8",
"ah c #707488",
"ai c #282498",
"aj c #201880",
"ak c #181058",
"al c #282848",
"am c #4038b0",
"an c #3034c8",
"ao c #303498",
"ap c #383840",
"aq c #202028",
"ar c #484488",
"as c #2020a0",
"at c #5854a8",
"au c #504cb8",
"av c #585488",
"aw c #a0a8d8",
"ax c #181800",
"ay c #302c88",
"az c #e8f4f8",
"aA c #100c60",
"aB c #888490",
"aC c #484858",
"aD c #b0b4f8",
"aE c #7874e8",
"aF c #080c28",
"aG c #403c80",
"aH c #d8d8f0",
"aI c #403c98",
"aJ c #706c80",
"aK c #909cc0",
"aL c #685cf0",
"aM c #787498",
"aN c #b8c4f8",
"aO c #383438",
"aP c #3028c0",
"aQ c #7874c0",
"aR c #e0e4f0",
"aS c #908cc8",
"aT c #302ca0",
"aU c #706c70",
"aV c #c0c8f8",
"aW c #5858c0",
"aX c #484cb8",
"aY c #6868e0",
"aZ c #e0e8e0",
"a0 c #d8dcd8",
"a1 c #9098b8",
"a2 c #b0acd0",
"a3 c #282c20",
"a4 c #787c78",
"a5 c #a8acf0",
"a6 c #a09ce8",
"a7 c #808880",
"a8 c #404840",
"a9 c #202820",
"b. c #e8f8d8",
"b# c #101050",
"ba c #d0cce0",
"bb c #989c98",
"bc c #101820",
"bd c #202478",
"be c #585cc8",
"bf c #484888",
"bg c #202490",
"bh c #4844b8",
"bi c #e0e4e0",
"bj c #8084d8",
"bk c #606470",
"bl c #909490",
"bm c #101010",
"bn c #b0b4d8",
"bo c #8084b0",
"bp c #c8d0f8",
"bq c #c8ccc8",
"br c #686490",
"bs c #b8bcb8",
"bt c #302488",
"bu c #d0dcf8",
"bv c #605cb8",
"bw c #908cb0",
"bx c #9090f0",
"by c #b8b8e0",
"bz c #1818a0",
"bA c #6878d0",
"bB c #d0ccf8",
"bC c #d0d8d8",
"bD c #807cc8",
"bE c #a09cc8",
"bF c #908c90",
"bG c #504c58",
"bH c #888c88",
"bI c #484c48",
"bJ c #a0ace8",
"bK c #282c28",
"bL c #807c88",
"bM c #d8d8d8",
"bN c #b8b0e0",
"bO c #a8a8e0",
"bP c #100c10",
"bQ c #d0d0f8",
"bR c #5854b8",
"bS c #181818",
"bT c #808480",
"bU c #404440",
"bV c #6864a8",
"bW c #202420",
"bX c #d0d0c8",
"bY c #7074a0",
"bZ c #100848",
"b0 c #2828b0",
"b1 c #c0c0e0",
"b2 c #2820b8",
"b3 c #707470",
"b4 c #f8f4e8",
"b5 c #505450",
/* pixels */
"#s#s#s#s#s#s#s#s#s#s#s#s#s#s#s#s#s#s#s#s#s#s#s#x#s#s#s#kbUbW#2bT#x#s#s#s#s#s#x#s#s#s#s#s#s#s#s#s#s#s#s#s#s#s#s#s#s#s#s#s#s",
"#s#s#s#s#s#s#s#s#s#s#s#s#s#s#s#s#s#s#s#s#s#s#s#x#5...Q..............#E#s#d#s#s#s#s#s#s#s#s#s#s#s#s#s#s#s#s#s#s#s#s#s#s#s#s",
"#s#s#s#s#s#s#s#s#s#s#s#s#s#s#s#s#s#s#s#s#x#s#sbm.......................s#D#s#s#s#s#s#s#s#s#s#s#s#s#s#s#s#s#s#s#s#s#s#s#s#s",
"#s#s#s#s#s#s#s#s#s#s#s#s#s#s#s#s#s#s#s#s#s#x........bIbH#fbHbH#E..........bl#x#s#s#s#s#s#s#s#s#s#s#s#s#s#s#s#s#s#s#s#s#s#s",
"#s#s#s#s#s#s#s#s#s#s#s#s#s#s#s#s#s#s#s#s#s.......QbTbT#kbM#d#x#d.xbU...Q...Q#k#s#x#s#s#s#s#s#s#s#s#s#s#s#s#s#s#s#s#s#s#s#s",
"#s#s#s#s#s#s#s#s#s#s#s#s#s#s#s#s#s#s#s#xbK......bT.7.b#s#s#s#s#s#s#s.n........bi#s#s#s#s#x#s#s#s#s#s#s#s#s#s#s#s#s#s#s#s#s",
"#s#s#s#s#s#s#s#s#s#s#s#s#s#s#s#s#s#s#s#D.Q....bTbT.b#s#s#s#s#s#s#s#s#ubW........#s#s#s#x#s#s#s#s#s#s#s#s#s#s#s#s#s#s#s#s#s",
"#s#s#s#s#s#s#s#s#s#s#s#s#s#s#s#s#s#s#s.Q...Q..#E#8#s#s#x#s#s#s#s#x#u#s#s...Q....bH#x#s#s#x#s.Q#s#s#s#s#s#s#s#s#s#s#s#s#s#s",
"#s#s#s#s#s#s#s#s#s#s#s#s#s#s#s#s#s#s#x.Q...Qb5.q.S.S#s#s#s.S#s#s#s#s#s#s.n.Q...Q.Q#s#s#x#s...Q#s#s#s#s#s#s#s#s#s#s#s#s#s#s",
"#s#s#s#s#s#s#s#s#s#s#s#s#sb4#s#s#s#saU..#L.F.zbx#x#x#x#s#s#s#x#s#s#s#x#s#s........#v#s#s#s.Q...A#x#s#s#s#s#s#s#s#s#s#s#s#s",
"#s#s#s#s#s#s#s#s#s#s#s#s#s#s#u#s#s#s.Faj#Yb2#Y#C#PaP.L#Y#e.E#x#sb..S#s#sb4#i..#L..#2#s#s#s....#6#s#s#s#s#s#s#s#s#s#s#s#s#s",
"#s#s#s#s#s#s#s#s#s#s#s#s#s#x#s#gbo#V.KaEaY.u.4awazaz#eam#Y#G.WaLaR#x#s#s#s#E.Q......#d.S.q....#8#s#sbi#s#s#s#s#s#s#s#s#s#d",
"#s#s#s#s#s#s#s#s#sb4#s#saH.vbEaBbw#t#o#o#1av.4.K.K.8bn.P#F.8bgb2.W#Sa####x#u.........0.S.......Qax..bb#s#s#s#s#s#x#x#u#3#s",
"#s#s#s#s#s#s#s#s#s.R.6#A#5.6.T#5.A#5#Q#Q.nbPbLaBaf.m.g.z.4bJbp.h.Ubz.Z.Was.2#y.......c.Ma3.....Ob5ap.Ib4#s#x#sbB.EaMb4#x#s",
"#s#s#s#s#s#s#s.Y#X#MaR#u.E#s#xbM#v.cbU#Q.c.9#Q.baHby.J.4.4.4#j#VbJaN#n.e#l#C.F...Q..a2.Ebk...Qa7#ba2#5#x#s#b#xbvbN#u#s#s#s",
"#s#s#s#s#sbs#ua0ba#s#g#u#x#u.I#x.S.S......#R.6#Q.c#Q.b#D#Xbo.8.z.z.z.2a5#t.G......#L.X#Ua..Q.Qbb.S#h#sa6.uayaS#s#s#s.I#s#s",
"#s#s#sa0#d#sbi#s#s#s#s#s#s#s#s#s#s#s........#fbT.c.c#Q#B.cbs#D#5.G.g#J.z.g.G#L#y..#Lbdajak....#M.B.gbfaI#g.E#u#x#s#s#s#s#s",
"#s#sbi#s#s#s#s#s#s#s#s#s#s#s#s#s#s#x........#2#Q#d.0#Qbb#Q#Q#6#8.PbabnbobYaf.......F.VbDal....ah.h#tbQbQbM#d#s#s#s#s#s#s#s",
"#s#s#s#s#s#s#s#s#s#s#s#s#s#s#s#s#s#s#2.........b#s#s#sbi#D#Q#rbb#8.r#5bababF.......Obw.6#7....bL.r.l.S#x#s#s.S.S#s#s#s#s#s",
"#s#s#s#s#s#s#s#s#s#s#s#s#s#s#s#s#s#sbM........bb#s#s#s#sb4#s#xbq#Q.c#A#Q#6bK......#f.7bTbG....#k.I#s#s#s#s#s#s#s#s#s#s#s#s",
"#s#s#s#s#s#s#s#s#s#s#s#s#s#s#s#s#s#s#x........bm#x#8bP...Q...Qbqb4#sbi.c#Q.Q....acbF.9b.#R..#L#8#s#u#s#s#s#s#s#s#s#s#s#s#s",
"#s#s#s#s#s#s#s#s#s#s#s#s#s#s#s#s#s#x#s#Q........#a#x#sa0.a...Q..ac#s#s#s#Q......aJ#A.S.Sbk....#8#s#s#s#s#s#s#s#s#s#s#s#s#s",
"#s#s#s#s#s#s#s#s#s#s#s#s#s#s#s#s#s#s#s#sbS.Q.......ba0#d#x#D.......Q#s#s......aq.7aR#s#s.n....#b#x#sb4.I#s#s#s#s#s#s#s#s#s",
"#s#s#s#s#s#s#s#s#s#s#s#s#s#s#s#s#s#s#s#s#s........bW#x#s#x#x#s...Q..#ybK.....QbH.9#s#s#sb3....#k#s#u#s#s#s#s#s#s#s#s#s#s#s",
"#s#s#s#s#s#s#s#s#s#s#s#s#s#s#s#s#s#s#s#s#xa0...........x#s#u#s#d............bH.q#x#s#s#sbs....bK#s#s#E#u#s#s#s#s#s#s#s#s#s",
"#s#s#s#s#s#s#s#s#s#s#s#s#s#s#s#s#s#s#s#s#s#x#sbm..........ap.7#R.Q.......sb3#B#x#s#x#sbl#s............#s#s#s#s#s#s#s#s#s#s",
"#s#s#s#s#s#s#s#s#s#s#s#s#s#s#s#s#s#s#s#s#x#s#s#s#8...................Q...Q#E#d#s#s#ub4#R#s#sbS....#Rbl#v#s#s#s#s#s#s#s#s#s",
"#s#s#s#s#s#s#s#s#s#s#s#s#s#s#s#s#s#s#s#s#s#s#x#s#x#sbXbU.Q....bKb5bT...Q...Q#R#d#sb4.Q#R.x#x#s.0#B.b#D#x#s#s#s#s#s#s#s#s#s",
"#s#s#s#s#s#s#s#s#s#s#s#s#s#s#s#s#s#s#s#s#s#s#s#s#s#s#s#sbi#Dbs.b.b#Dbi.................qbi#s#s#s#s#s#s#s#s#s#s#s#s#s#s#s#s",
"#s#s#s#s#s#s#s#s#s#s#s#s#s#s#s#s#s#s#s#s#s#s#s#s#s#s#s#s#s#s#s#s#s#s#s#k.......Q...Q..bT#x#s#s#s#s#s#s#s#s#s#s#s#s#s#s#s#s",
"#s#s#s#s#s#s#s#s#s#s#s#s#s#s#s#s#s#s#s#s#s#s#s#s#s#s#s#s#s#s#s#s#s#s#s#x.Y..........bT#8#s#s#s#s#s#s#s#s#s#s#s#s#s#s#s#s#s",
"#s#s#s#s#s#s#s#s#s#s#s#s#s#s#s#s#s#s#s#s#s#s#s#s#s#s#s#s#s#s#s#s#s#s#s#s#s#sbTbK#abH#Q#s#s#s#s#s#s#s#s#s#s#s#s#s#s#s#s#s#s"
};
