/* XPM */
static char * core_menu_xpm[] = {
"16 16 108 2",
"  	c None",
". 	c #000000",
"+ 	c #5C5420",
"@ 	c #433C0E",
"# 	c #5B5110",
"$ 	c #8A7B19",
"% 	c #2C2808",
"& 	c #DBC957",
"* 	c #AB9825",
"= 	c #292507",
"- 	c #AA971F",
"; 	c #CCB625",
"> 	c #453D0D",
", 	c #A19024",
"' 	c #F3D837",
") 	c #F4DA3B",
"! 	c #ECD132",
"~ 	c #E1C632",
"{ 	c #917F21",
"] 	c #A18F1D",
"^ 	c #231F07",
"/ 	c #D6BE31",
"( 	c #FADE32",
"_ 	c #FADF2C",
": 	c #F8DE29",
"< 	c #EDD428",
"[ 	c #E7CC2A",
"} 	c #E2C52F",
"| 	c #AB9228",
"1 	c #A89326",
"2 	c #F8DB32",
"3 	c #DFC724",
"4 	c #6B600F",
"5 	c #AB9A16",
"6 	c #E2CB1E",
"7 	c #574D0D",
"8 	c #8D7B19",
"9 	c #D7B72D",
"0 	c #6F5C19",
"a 	c #F1D036",
"b 	c #F7DA2C",
"c 	c #D3BC1E",
"d 	c #978811",
"e 	c #C9B82C",
"f 	c #D5C333",
"g 	c #857611",
"h 	c #746512",
"i 	c #DBBA28",
"j 	c #A88A26",
"k 	c #584A15",
"l 	c #EDCB31",
"m 	c #F6D828",
"n 	c #F8DD20",
"o 	c #F5DE29",
"p 	c #FBF098",
"q 	c #D9CD6D",
"r 	c #9E8C15",
"s 	c #D0B41D",
"t 	c #D9B725",
"u 	c #B19025",
"v 	c #30260C",
"w 	c #554713",
"x 	c #E6C32E",
"y 	c #F2D227",
"z 	c #F5D820",
"A 	c #EAD437",
"B 	c #E1D99D",
"C 	c #C3B555",
"D 	c #73650E",
"E 	c #CBAE1C",
"F 	c #D1AE23",
"G 	c #A68422",
"H 	c #2E230A",
"I 	c #D8B32C",
"J 	c #E9C626",
"K 	c #E8C91F",
"L 	c #8E7B17",
"M 	c #716324",
"N 	c #615011",
"O 	c #A38B15",
"P 	c #D7B51F",
"Q 	c #C39E21",
"R 	c #8C6B1C",
"S 	c #806819",
"T 	c #D9B526",
"U 	c #63540F",
"V 	c #76352F",
"W 	c #A44646",
"X 	c #AE4949",
"Y 	c #572A22",
"Z 	c #856C14",
"` 	c #A8831D",
" .	c #503C0F",
"..	c #A5831F",
"+.	c #3D310A",
"@.	c #C15050",
"#.	c #BD4F4F",
"$.	c #C05050",
"%.	c #592A27",
"&.	c #42330B",
"*.	c #654C11",
"=.	c #7A561A",
"-.	c #C35250",
";.	c #994242",
">.	c #704522",
",.	c #4C390C",
"'.	c #491F1F",
").	c #361E12",
"          . .                   ",
"              .                 ",
"      .                         ",
"      .       + @               ",
"  # $       % & * =             ",
"  - ; >   , ' ) ! ~ {           ",
"    ] ^ / ( _ : < [ } |         ",
"      1 2 3 4 5 6 7 8 9 0       ",
"      a b c d e f g h i j       ",
"    k l m n o p q r s t u v     ",
"    w x y z A B C D E F G H     ",
"      I J K L M N O P Q R       ",
"      S T U V W X Y Z `  .      ",
"        ..+.@.#.$.%.&.*.        ",
"          =.-.#.;.>.,.          ",
"              '.).              "};
