/* XPM */
static char * detach_menu_xpm[] = {
"16 16 12 1",
" 	c None",
".	c #8C8D8C",
"+	c #BDBDBD",
"@	c #5A5B5A",
"#	c #8C938B",
"$	c #A5A5A5",
"%	c #424442",
"&	c #DEDCDE",
"*	c #DEE3DE",
"=	c #D6DBD6",
"-	c #424942",
";	c #737473",
"                ",
"       ..+      ",
"      @.#@$$    ",
"      %%&%..    ",
"      %%&%..    ",
"      %%*%..    ",
"      %%=%%%%   ",
"    %%%%%....   ",
"    .... %%%    ",
"     %%%%%..    ",
"      -%*%#.    ",
"      %%=%..    ",
"      %$%;..    ",
"      $; $;     ",
"       $%;      ",
"                "};
