/* XPM */
static char * step_over_menu_xpm[] = {
"16 16 9 1",
" 	c None",
".	c #EEEADC",
"+	c #AFA586",
"@	c #8F866D",
"#	c #E7D2D2",
"$	c #D0A5A5",
"%	c #808080",
"&	c #A75656",
"*	c #773E3E",
"                ",
"                ",
"  .++++++++++@  ",
" .+@@@@@@@@@@+@ ",
" .+@        .+@ ",
" .+@ #$ #$% .+@ ",
" .+@#$%  #& .+@ ",
"  . $&   $&@@@@@",
"    $&   $&%++@ ",
"   $&%    $& @  ",
"    $&   $&%    ",
"    $*   $*     ",
"    $*%  $*     ",
"     $* $*%     ",
"                ",
"                "};
