/* XPM */
static char * step_out_menu_xpm[] = {
"16 16 9 1",
" 	c None",
".	c #8F866D",
"+	c #E2D8B9",
"@	c #AFA586",
"#	c #E7D2D2",
"$	c #D0A5A5",
"%	c #808080",
"&	c #A75656",
"*	c #773E3E",
"            .   ",
"        ++++..  ",
"       +@@@@@@. ",
"      +@@.....  ",
"      +@.   .   ",
"   #$ +@. #$%   ",
"  #$  +@.  #&   ",
"  $&   .   $&   ",
"  $&       $&%  ",
" $&%        $&  ",
"  $&       $&%  ",
"  $*       $*   ",
"  $*%      $*   ",
"   $*     $*%   ",
"                ",
"                "};
