/* XPM */
static char * accel_xpm[] = {
"22 22 24 1",
" 	c None",
".	c #3B42EA",
"+	c #050EFF",
"@	c #171EF2",
"#	c #242ADC",
"$	c #2126B5",
"%	c #404063",
"&	c #0E14BF",
"*	c #0000D7",
"=	c #575752",
"-	c #0000FF",
";	c #0000EF",
">	c #0000AC",
",	c #0000B2",
"'	c #323373",
")	c #0000DA",
"!	c #4E4E5A",
"~	c #0000F6",
"{	c #0000E7",
"]	c #141BC8",
"^	c #2F36FF",
"/	c #0000CE",
"(	c #000097",
"_	c #141798",
"                      ",
"                      ",
"                      ",
"                      ",
"         .+@          ",
"        #$%&*         ",
"        +=  -=        ",
"       =-=  -=        ",
"        ;# #>         ",
"        =--,=         ",
"        .--%          ",
"       .*'*;  .       ",
"      .)= =+$.#=      ",
"      #$   !-~&       ",
"      {$    ]-%       ",
"      %{    ^-*       ",
"       /;$.-(!-]      ",
"        _;/'  ='      ",
"                      ",
"                      ",
"                      ",
"                      "};
