/* XPM */
static char *magick[] = {
/* columns rows colors chars-per-pixel */
"22 22 64 1",
"  c Gray100",
". c #1a1d40",
"X c #0f0f35",
"o c #0f0f0c",
"O c #0008ff",
"+ c Blue",
"@ c #0000e5",
"# c #0000d4",
"$ c #0000c3",
"% c #0000bf",
"& c #0000b1",
"* c #0000a3",
"= c #0000a0",
"- c #000088",
"; c #00007e",
": c #000077",
"> c #000073",
", c #000069",
"< c #000065",
"1 c #000062",
"2 c #00005b",
"3 c #000054",
"4 c #00004d",
"5 c #00004a",
"6 c #000046",
"7 c #000040",
"8 c #00002e",
"9 c #00002b",
"0 c #000016",
"q c #000013",
"w c #00000c",
"e c #000002",
"r c Gray0",
"t c #c0c0c0",
"y c Gray0",
"u c Gray0",
"i c Gray0",
"p c Gray0",
"a c Gray0",
"s c Gray0",
"d c Gray0",
"f c Gray0",
"g c Gray0",
"h c Gray0",
"j c Gray0",
"k c Gray0",
"l c Gray0",
"z c Gray0",
"x c Gray0",
"c c Gray0",
"v c Gray0",
"b c Gray0",
"n c Gray0",
"m c Gray0",
"M c Gray0",
"N c Gray0",
"B c Gray0",
"V c Gray0",
"C c Gray0",
"Z c Gray0",
"A c Gray0",
"S c Gray0",
"D c Gray0",
"F c Gray0",
/* pixels */
"tttttttttttttttttttttt",
"tttttttttttttttttttttt",
"tttttttttttttttttttttt",
"tttttttttttttttttttttt",
"tttttOt#*tttttOtOttttt",
"ttttt+.O.tttt@$*Ottttt",
"tttttO;t.ttttt#tOttttt",
"ttttt#tO:tttt#-t$ttttt",
"ttttt;t.tttttt.t.ttttt",
"tttttttttttttttttttttt",
"tttttttttttttttttttttt",
"tttttttttttttttttttttt",
"tttttttttttttttttttttt",
"tttttttttttttttttttttt",
"tttttttttttttttttttttt",
"tttttttttttttttttttttt",
"tttttttttttttttttttttt",
"tttttttttttttttttttttt",
"tttttttttttttttttttttt",
"tttttttttttttttttttttt",
"tttttttttttttttttttttt",
"tttttttttttttttttttttt"
};
