/* XPM */
static char * classes_xpm[] = {
"23 22 3 1",
" 	c None",
".	c #FFFF00000000",
"X	c #FFFFFFFF0000",
"        .......        ",
"      ...........      ",
"    ...............    ",
"   XXXXXXXXXXXXXXXXX   ",
"  XXXXXXXXXXXXXXXXXXX  ",
"  XXXX   XXXXX   XXXX  ",
" XXXX     XXX     XXXX ",
" XXXX     XXX     XXXX ",
"XXXXX     XXX     XXXXX",
"XXXXXX   XXXXX   XXXXXX",
"XXXXXXXXXXXXXXXXXXXXXXX",
"XXXXXXXXXXXXXXXXXXXXXXX",
"XXXXXXXXXXXXXXXXXXXXXXX",
"XXXXXXXXXXXXXXXXXXXXXXX",
" XXXX  XXXXXXXXX  XXXX ",
" XXXXX    XXX    XXXXX ",
"  XXXXX         XXXXX  ",
"  XXXXXX       XXXXXX  ",
"   XXXXXXX   XXXXXXX   ",
"    XXXXXXXXXXXXXXX    ",
"      XXXXXXXXXXX      ",
"        XXXXXXX        "};
