/* XPM */
static char * editdelete_xpm[] = {
"22 22 148 2",
"  	c None",
". 	c #454545",
"+ 	c #8B8B8B",
"@ 	c #282828",
"# 	c #464646",
"$ 	c #6F6F6F",
"% 	c #F7F7F7",
"& 	c #FDFDFD",
"* 	c #5A5A5A",
"= 	c #C2C2C2",
"- 	c #424242",
"; 	c #F0F0F0",
"> 	c #D7D7D7",
", 	c #CDCDCD",
"' 	c #EBEBEB",
") 	c #CFCFCF",
"! 	c #AAAAAA",
"~ 	c #E5E5E5",
"{ 	c #686868",
"] 	c #F5F5F5",
"^ 	c #C9C9C9",
"/ 	c #313131",
"( 	c #F4F4F4",
"_ 	c #DCDCDC",
": 	c #E0E0E0",
"< 	c #E3E3E3",
"[ 	c #D0D0D0",
"} 	c #646464",
"| 	c #B5B5B5",
"1 	c #A8A8A8",
"2 	c #252525",
"3 	c #F1F1F1",
"4 	c #B8B8B8",
"5 	c #E7E7E7",
"6 	c #B9B9B9",
"7 	c #D2D2D2",
"8 	c #B3B3B3",
"9 	c #E8E8E8",
"0 	c #9D9D9D",
"a 	c #797979",
"b 	c #676767",
"c 	c #4E4E4E",
"d 	c #161616",
"e 	c #A4A4A4",
"f 	c #B4B4B4",
"g 	c #DFDFDF",
"h 	c #8E8E8E",
"i 	c #9E9E9E",
"j 	c #CBCBCB",
"k 	c #1F1F1F",
"l 	c #F2F2F2",
"m 	c #C1C1C1",
"n 	c #BEBEBE",
"o 	c #EEEEEE",
"p 	c #D1D1D1",
"q 	c #C6C6C6",
"r 	c #C8C8C8",
"s 	c #D3D3D3",
"t 	c #D8D8D8",
"u 	c #2B2B2B",
"v 	c #2A2A2A",
"w 	c #ECECEC",
"x 	c #A3A3A3",
"y 	c #CCCCCC",
"z 	c #A0A0A0",
"A 	c #BBBBBB",
"B 	c #DEDEDE",
"C 	c #959595",
"D 	c #ACACAC",
"E 	c #ADADAD",
"F 	c #292929",
"G 	c #929292",
"H 	c #919191",
"I 	c #989898",
"J 	c #AFAFAF",
"K 	c #878787",
"L 	c #8D8D8D",
"M 	c #BFBFBF",
"N 	c #F3F3F3",
"O 	c #DBDBDB",
"P 	c #B7B7B7",
"Q 	c #C3C3C3",
"R 	c #C7C7C7",
"S 	c #272727",
"T 	c #000000",
"U 	c #6E6E6E",
"V 	c #EDEDED",
"W 	c #BCBCBC",
"X 	c #B0B0B0",
"Y 	c #BDBDBD",
"Z 	c #A9A9A9",
"` 	c #B2B2B2",
" .	c #232323",
"..	c #333333",
"+.	c #808080",
"@.	c #6C6C6C",
"#.	c #E4E4E4",
"$.	c #949494",
"%.	c #9A9A9A",
"&.	c #939393",
"*.	c #A1A1A1",
"=.	c #8A8A8A",
"-.	c #979797",
";.	c #999999",
">.	c #505050",
",.	c #2D2D2D",
"'.	c #5E5E5E",
").	c #4B4B4B",
"!.	c #696969",
"~.	c #EAEAEA",
"{.	c #E2E2E2",
"].	c #DADADA",
"^.	c #D5D5D5",
"/.	c #B6B6B6",
"(.	c #818181",
"_.	c #7A7A7A",
":.	c #707070",
"<.	c #4D4D4D",
"[.	c #444444",
"}.	c #4A4A4A",
"|.	c #545454",
"1.	c #A7A7A7",
"2.	c #9B9B9B",
"3.	c #8C8C8C",
"4.	c #202020",
"5.	c #595959",
"6.	c #3A3A3A",
"7.	c #434343",
"8.	c #3F3F3F",
"9.	c #040404",
"0.	c #6D6D6D",
"a.	c #3D3D3D",
"b.	c #212121",
"c.	c #898989",
"d.	c #010101",
"e.	c #787878",
"f.	c #6A6A6A",
"g.	c #606060",
"h.	c #0B0B0B",
"i.	c #555555",
"j.	c #525252",
"k.	c #868686",
"l.	c #515151",
"m.	c #0C0C0C",
"n.	c #777777",
"o.	c #7C7C7C",
"p.	c #343434",
"q.	c #171717",
"                                            ",
"          . + + + + + + + @ #               ",
"          $ % & & & & & & * = -             ",
"          $ ; > , ' ) ! ~ { ] ^ /           ",
"          $ ( _ ' : < [ ; } | [ 1 2         ",
"          $ 3 4 5 6 7 8 9 0 a b c d         ",
"          $ ' e f g ^ h i ; < j e k         ",
"          $ l m > n o p q r j s t u         ",
"          $ ( 7 < [ o g 7 ) p t > v         ",
"          $ w x y z A B 8 C D E p F         ",
"          $ o 0 G = H I J K L M , @         ",
"          $ N [ O r n r P = Q n R S         ",
"        T U V m 7 W X Y Z P 4 ` m  .T       ",
"    ..U +.@.#.$.$.%.&.*.! =.+ -.A ..;.>.,.  ",
"  T e '.).!.~.' 5 {.g ].^.p , r /.S # (._.  ",
"  :.<.[.}.|.! 1.e *.i 2.-.$.H 3.K 4.- 5.$ 6.",
"  _.7.8.F T T T T T T T T T T T T 9.u |.0.a.",
"  b.c.S d.T T T T T T T T T T T T T 9.. e.  ",
"    f.g.. T T T T T T T T T T T T h.i.{ j.  ",
"      u [.k.k.l.m.m.m.m.m.m.m.n.k.o.p.      ",
"          T T [._._._._._._._.q.T T         ",
"                                            "};
