/* XPM */
static char * print_xpm[] = {
"22 22 57 1",
" 	c None",
".	c #B5B5B5",
"+	c #BDBDBD",
"@	c #CECECE",
"#	c #C6C6C6",
"$	c #ADADAD",
"%	c #EFEFEF",
"&	c #E7E7E7",
"*	c #DEDEDE",
"=	c #D6D6D6",
"-	c #A5A5A5",
";	c #B1B1B1",
">	c #9C9C9C",
",	c #6F6F6F",
"'	c #909090",
")	c #565656",
"!	c #424242",
"~	c #6B6B6B",
"{	c #989898",
"]	c #7F7F7F",
"^	c #7B7B7B",
"/	c #777777",
"(	c #838383",
"_	c #878787",
":	c #8C8C8C",
"<	c #3D3D3D",
"[	c #252525",
"}	c #1C1C1C",
"|	c #DADADA",
"1	c #EBEBEB",
"2	c #E2E2E2",
"3	c #D2D2D2",
"4	c #949494",
"5	c #A0A0A0",
"6	c #141414",
"7	c #FFFFFF",
"8	c #EAEAEA",
"9	c #313131",
"0	c #101010",
"a	c #A9A9A9",
"b	c #F7F7F7",
"c	c #F3F3F3",
"d	c #000000",
"e	c #CACACA",
"f	c #C9C9C9",
"g	c #A4A4A4",
"h	c #676767",
"i	c #181818",
"j	c #888888",
"k	c #4E4E4E",
"l	c #212121",
"m	c #2D2D2D",
"n	c #353535",
"o	c #5E5E5E",
"p	c #393939",
"q	c #292929",
"r	c #0C0C0C",
"      .+@@@@##++$+    ",
"      +%&&&&&%%%*+    ",
"      +###@@####+#    ",
"      .++++.++..$+    ",
"     #$#+###+++#.     ",
"     ++.++++++##.     ",
"     +.#+++++#+#$     ",
"     #++++++++++.     ",
"     $@&******=*--;   ",
"   +>,.=@=@=@=**')!~. ",
"  +{]^///////(_:,<[}!-",
" +>|12|||||3=.4$5!}}6<",
"+5177777777784(4@_9}0}",
"ab7777777777c;{+7*/}d}",
"a|3e3=||*22|2|f33e'6d}",
"';;aaga5gg-g5gg>{'h6d}",
"';;ga555555555>{{:h6di",
"4gg555555>>>{{{>'jh6dk",
"'a55>>>{>>>{>{{''j,6i$",
"4jj:::j':j'''''4':hi4 ",
".,[}l[[[[mmmnnnnnmn4  ",
"  $o<<pn999qq[iir!>   "};
