/* XPM */
static char * clear_t_xpm[] = {
"16 16 2 1",
" 	c None",
".	c #FF0000",
"                ",
"                ",
"   .       .    ",
"   ..     ..    ",
"   ...   ...    ",
"    ..   ..     ",
"    ... ...     ",
"     .....      ",
"      ...       ",
"      ....      ",
"     ......     ",
"    ...  ...    ",
"   ...    ...   ",
"  ...       ..  ",
"   .            ",
"                "};
