/* XPM */
static char *magick[] = {
/* columns rows colors chars-per-pixel */
"32 32 188 2",
"   c #080808084242",
".  c #080808084a4a",
"X  c #000000005a5a",
"o  c #101010105a5a",
"O  c #000000007373",
"+  c #000000007b7b",
"@  c #080808087373",
"#  c #181821215a5a",
"$  c #212121214242",
"%  c #313131315252",
"&  c #313131315a5a",
"*  c #212121217b7b",
"=  c #393939397b7b",
"-  c #4a4a4a4a6363",
";  c #424242427b7b",
":  c #4a4a4a4a7b7b",
">  c #5a5a5a5a6363",
",  c #525252527373",
"<  c #525252527b7b",
"1  c #5a5a5a5a7b7b",
"2  c #6b6b6b6b7b7b",
"3  c #737373737b7b",
"4  c #7b7b7b7b7b7b",
"5  c #000000008484",
"6  c #000000008c8c",
"7  c #000000009c9c",
"8  c #000008089494",
"9  c #080810109c9c",
"0  c #101010108c8c",
"q  c #101010109c9c",
"w  c #181818189494",
"e  c #00000000a5a5",
"r  c #00000000adad",
"t  c #00000808a5a5",
"y  c #08080808adad",
"u  c #00000000bdbd",
"i  c #00000808b5b5",
"p  c #08080808b5b5",
"a  c #08080808bdbd",
"s  c #08081010adad",
"d  c #08081010b5b5",
"f  c #18181818adad",
"g  c #18182121a5a5",
"h  c #18182121b5b5",
"j  c #212121218c8c",
"k  c #212121219494",
"l  c #292929299c9c",
"z  c #292931319494",
"x  c #313131318484",
"c  c #313131318c8c",
"v  c #393939398c8c",
"b  c #21212121adad",
"n  c #31313131adad",
"m  c #00000000c6c6",
"M  c #00000000cece",
"N  c #00000808cece",
"B  c #08080808c6c6",
"V  c #00000000d6d6",
"C  c #00000808d6d6",
"Z  c #08080808d6d6",
"A  c #08080808dede",
"S  c #08081010d6d6",
"D  c #10101818cece",
"F  c #00000000efef",
"G  c #00000808e7e7",
"H  c #00000808efef",
"J  c #08080808e7e7",
"K  c #08081010e7e7",
"L  c #08081010efef",
"P  c #08081010f7f7",
"I  c #08081010ffff",
"U  c #10101010efef",
"Y  c #10101818e7e7",
"T  c #10101818efef",
"R  c #18181818e7e7",
"E  c #18181818efef",
"W  c #10101010f7f7",
"Q  c #10101818f7f7",
"!  c #10101818ffff",
"~  c #18181818ffff",
"^  c #18182121cece",
"/  c #18182121d6d6",
"(  c #18182121dede",
")  c #18182121f7f7",
"_  c #18182121ffff",
"`  c #21212121cece",
"'  c #39393939dede",
"]  c #21212121efef",
"[  c #21212929efef",
"{  c #29292929e7e7",
"}  c #21212121ffff",
"|  c #21212929ffff",
" . c #29292929ffff",
".. c #29293131f7f7",
"X. c #29293131ffff",
"o. c #31313939efef",
"O. c #31313939f7f7",
"+. c #31313939ffff",
"@. c #39394242ffff",
"#. c #4a4a4a4a9494",
"$. c #4a4a52529c9c",
"%. c #525252529c9c",
"&. c #42424242adad",
"*. c #4a4a4a4aadad",
"=. c #42424242b5b5",
"-. c #52525252b5b5",
";. c #5a5a5a5ab5b5",
":. c #5a5a5a5abdbd",
">. c #6b6b6b6b8484",
",. c #636363639494",
"<. c #737373738484",
"1. c #7b7b7b7b8484",
"2. c #737373739c9c",
"3. c #7b7b7b7b9494",
"4. c #7b7b7b7b9c9c",
"5. c #63636363adad",
"6. c #6b6b6b6badad",
"7. c #63636363bdbd",
"8. c #63636b6bb5b5",
"9. c #6b6b6b6bbdbd",
"0. c #73737373bdbd",
"q. c #7b7b7b7bb5b5",
"w. c #7b7b7b7bbdbd",
"e. c #42424242c6c6",
"r. c #42424a4ac6c6",
"t. c #4a4a4a4acece",
"y. c #42424242dede",
"u. c #42424a4ad6d6",
"i. c #5a5a5a5ac6c6",
"p. c #5a5a5a5acece",
"a. c #42424a4ae7e7",
"s. c #42424242f7f7",
"d. c #42424242ffff",
"f. c #42424a4affff",
"g. c #4a4a5252ffff",
"h. c #52525252ffff",
"j. c #52525a5affff",
"k. c #5a5a6363ffff",
"l. c #63636363c6c6",
"z. c #6b6b6b6bc6c6",
"x. c #63636363efef",
"c. c #63636b6bffff",
"v. c #6b6b7373ffff",
"b. c #73737b7bffff",
"n. c #7b7b8484bdbd",
"m. c #7b7b8484c6c6",
"M. c #848484848484",
"N. c #848484848c8c",
"B. c #8c8c8c8c8484",
"V. c Gray55",
"C. c #8c8c8c8c9494",
"Z. c #8c8c8c8c9c9c",
"A. c Gray58",
"S. c #949494949c9c",
"D. c #84848484a5a5",
"F. c #84848484adad",
"G. c #84848484b5b5",
"H. c #84848484bdbd",
"J. c #94949494a5a5",
"K. c #9c9c9c9ca5a5",
"L. c #9c9c9c9cadad",
"P. c #94949494b5b5",
"I. c #9c9c9c9cb5b5",
"U. c #a5a5a5a5a5a5",
"Y. c #a5a5a5a5adad",
"T. c Gray68",
"R. c #a5a5a5a5b5b5",
"E. c #adadadadb5b5",
"W. c #adadadadbdbd",
"Q. c #b5b5b5b5adad",
"!. c Gray71",
"~. c #b5b5b5b5bdbd",
"^. c #bdbdbdbdb5b5",
"/. c Gray74",
"(. c #84848484ffff",
"). c #8c8c8c8cffff",
"_. c #8c8c9494ffff",
"`. c #94949c9cffff",
"'. c #9c9c9c9cffff",
"]. c #9c9ca5a5ffff",
"[. c #a5a5adadffff",
"{. c #adadadadffff",
"}. c #bdbdc6c6ffff",
"|. c #c0c0c0c0c0c0",
" X c #c6c6c6c6c6c6",
".X c #cecececeffff",
"XX c #dedededeffff",
"oX c None",
/* pixels */
"oXoXoXoXoXoXoXoXoXoXoXW.n.p.y.' r.w.W.oXoXoXoXoXoXoXoXoXoXoXoXoX",
"oXoXoXoXoXoXoXoXoX/.H.x.[.`.v.k.@.X.( 8./.oXoXoXoXoXoXoXoXoXoXoX",
"oXoXoXoXoXoXoXoX/.u.j.}.[.@.R Y E  .} F &./.oXoXoXoXoXoXoXoXoXoX",
"oXoXoXoXoXoXoXoXl.c.).] 5 ; <.1.: s _ } N 2.oXoXoXoXoXoXoXoXoXoX",
"oXoXoXoXoXoXoXE.O.`.X.+ B./.oXoXoX3 y } P b !.oXoXoXoXoXoXoXoXoX",
"oXoXoXoXoXoXoXq.g.g.N - /.oXoXoXoX!.g | } y K.oXoXoXoXoXoXoXoXoX",
"oXoXoXoXoXoXoX:. .X.p 1.oXoXoXoXoX X=._ | t C.oXoXoXoXoXoXoXoXoX",
"oXoXoXoXoXoXoX;._ X.S <.oXoXoXoXoX/.e.X. .t C.oXoXoXoXoXoXoXoXoX",
"oXoXoXoXoXoXoXF.Q  .W z /.oXoXoXoXE.{ c.) @ T.oXoXoXoXoXoXoXoXoX",
"oXoXoXoXoXoXoXY.B | | N 3.oXoXoXoX7.f.f.C & /.oXoXoXoXoXoXoXoXoX",
"oXoXoXoXoXoXoX/.#.G | ~ a D.oX~.i.j.b.~ O A.oXoXoXoXoXoXoXoXoXoX",
"oXoXoXoXoXoXoXoXT.q K | Q D :.a.v.b.Y O 3  XoXoXoXoXoXoXoXoXoXoX",
"oXoXoXoXoXoXoXoXoXZ.p ~ | +.h.v.j.B o 4 /.oXoXoXoXoXoXoXoXoXoXoX",
"oXoXoXoXoXoXoXoXoX/.^ _ | | | Q e $ T.oXoXoXoXoXoXoXoXoXoXoXoXoX",
"oXoXoXoXoXoXoXoX~.9.s.(.+. .} K + N.oXoXoXoXoXoXoXoXoXoXoXoXoXoX",
"oXoXoXoXoXoXoXI.y.b.`.f.| | | _ A %./.oXoXoXoXoXoXoXoXoXoXoXoXoX",
"oXoXoXoXoXoXm.s.`.c.Y 7 9 N ) } _ B J.oXoXoXoXoXoXoXoXoXoXoXoXoX",
"oXoXoXoX X9.@.].d.m o M.A.= r T _ ! b Y.oXoXoXP.a.t.G./.oXoXoXoX",
"oXoXoXoXL.O.{.f.N   V.oXoX!.; u U } H l !.oX!.' `.+.L Y.oXoXoXoX",
"oXoXoX/.t.v.c.J # T.oXoXoXoX!.c C _ } L *.E.9.+.'.@.d K.oXoXoXoX",
"oXoXoXR...v._ 8 V.oXoXoXoXoXoXT.j A _ | ! R O._.f.I * ^.oXoXoXoX",
"oXoXoXw.f.d.J & /.oXoXoXoXoXoXoXT.k K _ | | k.v._ u 2 oXoXoXoXoX",
"oXoXoX-.| | m , oXoXoXoXoXoXoXoXoXK.t W _ _ _ ! Z . U.oXoXoXoXoX",
"oXoXoX-._ | S < oXoXoXoXoXoXoXoXoX/.#.M _ } _ U 6 1.oXoXoXoXoXoX",
"oXoXoXq.Q | L x /.oXoXoXoXoXoXoXoXoXT.9 H _ ~ A 8 K.oXoXoXoXoXoX",
"oXoXoXL.Z | } a K.oXoXoXoXoXoXoXoXoXE.` s.X._ ! Z $./.oXoXoXoXoX",
"oXoXoX^.n P | P l Q.oXoXoXoXoXoXoXR.' _..X@._ } K V *./.oXoXoXoX",
"oXoXoXoX4.C _ _ K l R.oXoXoXoX/.P.{ _.XXj._ } | _ ! H 5.oXoXoXoX",
"oXoXoXoX/.v i T } ) / -.0.w.z.y.+.g.v.o.8 v %.q T X.} L 6.oXoXoX",
"oXoXoXoXoXE.v u T } _  .X.X.+.g.+.E r X > ^.oXC.s ! _ P w oXoXoX",
"oXoXoXoXoXoX/.,.b [ } _ _ _ _ P C 5 % A./.oXoXoXS.0 m 5 3 oXoXoX",
"oXoXoXoXoXoXoX/.U.>.v g f h g x 1 A./.oXoXoXoXoXoXU.> 3  XoXoXoX"
};
