/* XPM */
static char *magick[] = {
/* columns rows colors chars-per-pixel */
"32 32 156 2",
"   c Gray0",
".  c #000000000808",
"X  c Gray3",
"o  c #181818181818",
"O  c #000000002121",
"+  c #080808083939",
"@  c #181818182121",
"#  c #212121212929",
"$  c #212129292929",
"%  c #292929293131",
"&  c #292931313131",
"*  c #313131313939",
"=  c #313139393131",
"-  c #313139393939",
";  c #393939393939",
":  c #000000004a4a",
">  c #000000005252",
",  c #080808085a5a",
"<  c #101010104a4a",
"1  c #000000006b6b",
"2  c #080808087b7b",
"3  c #101010106363",
"4  c #292929294a4a",
"5  c #393939394242",
"6  c #313142423939",
"7  c #393942423939",
"8  c #393942424242",
"9  c #424242424a4a",
"0  c #42424a4a4242",
"q  c #42424a4a4a4a",
"w  c #4a4a4a4a5252",
"e  c #4a4a4a4a5a5a",
"r  c #424252524a4a",
"t  c #4a4a52524a4a",
"y  c #4a4a5a5a5252",
"u  c Gray32",
"i  c #52525a5a5252",
"p  c #52525a5a5a5a",
"a  c #5a5a5a5a5a5a",
"s  c #5a5a63635a5a",
"d  c #5a5a63636363",
"f  c Gray39",
"g  c #636363636b6b",
"h  c #63636b6b6363",
"j  c #63636b6b6b6b",
"k  c #6b6b6b6b7373",
"l  c #6b6b6b6b7b7b",
"z  c #636373736b6b",
"x  c #6b6b7b7b7373",
"c  c Gray45",
"v  c #73737b7b7373",
"b  c #7b7b7b7b7b7b",
"n  c #101010108c8c",
"m  c #00000000a5a5",
"M  c #18181818b5b5",
"N  c #313131318c8c",
"B  c #00000000d6d6",
"V  c #18181818c6c6",
"C  c #18181818cece",
"Z  c #00000000efef",
"A  c #00000000f7f7",
"S  c Blue",
"D  c #18181818ffff",
"F  c #31313131d6d6",
"G  c #21212121ffff",
"H  c #39393939ffff",
"J  c #4a4a4a4a9c9c",
"K  c #525252529c9c",
"L  c #5a5a5a5a9c9c",
"P  c #5a5a5a5ab5b5",
"I  c #636363639494",
"U  c #7b7b7b7b8484",
"Y  c #7b7b7b7bb5b5",
"T  c #7b7b7b7bbdbd",
"R  c #42424242cece",
"E  c #42424242d6d6",
"W  c #4a4a4a4affff",
"Q  c #6b6b6b6bd6d6",
"!  c #73736b6bcece",
"~  c #73737373c6c6",
"^  c #7b7b7b7bdede",
"/  c #63636363ffff",
"(  c #73737373e7e7",
")  c #7b7b7373efef",
"_  c #7b7b7b7be7e7",
"`  c #7b7b7b7bffff",
"'  c #7b7b8c8c8484",
"]  c #848484848c8c",
"[  c #84848c8c8484",
"{  c Gray55",
"}  c #8c8c8c8c9494",
"|  c #8c8c8c8c9c9c",
" . c #8c8c9c9c8c8c",
".. c #8c8c9c9c9494",
"X. c Gray58",
"o. c #949494949c9c",
"O. c #94949c9c9494",
"+. c Gray61",
"@. c #8c8c8c8cb5b5",
"#. c #94949494a5a5",
"$. c #9c9c9c9ca5a5",
"%. c #94949494b5b5",
"&. c #9c9ca5a59c9c",
"*. c #9c9cadada5a5",
"=. c #a5a5a5a5a5a5",
"-. c #a5a5a5a5adad",
";. c #a5a5a5a5b5b5",
":. c #a5a5b5b5adad",
">. c #adadb5b5adad",
",. c #adadb5b5b5b5",
"<. c Gray71",
"1. c #b5b5b5b5bdbd",
"2. c #b5b5bdbdb5b5",
"3. c Gray74",
"4. c #9c9c9c9cdede",
"5. c #8c8c8c8cefef",
"6. c #94949494ffff",
"7. c #9c9c9c9cffff",
"8. c #bdbdbdbdc6c6",
"9. c #adadadadffff",
"0. c #b5b5b5b5ffff",
"q. c #bdbdbdbdffff",
"w. c #b5b5c6c6bdbd",
"e. c #bdbdcecebdbd",
"r. c #c0c0c0c0c0c0",
"t. c #c6c6c6c6c6c6",
"y. c #c6c6cececece",
"u. c #cececececece",
"i. c #cecececed6d6",
"p. c #c6c6d6d6cece",
"a. c #cecededed6d6",
"s. c Gray84",
"d. c Gray87",
"f. c #c6c6c6c6ffff",
"g. c #d6d6d6d6efef",
"h. c #d6d6d6d6ffff",
"j. c #d6d6e7e7d6d6",
"k. c #d6d6e7e7dede",
"l. c #dedee7e7dede",
"z. c #dedeefefdede",
"x. c #dedeefefe7e7",
"c. c #e7e7e7e7e7e7",
"v. c #e7e7efefe7e7",
"b. c #efefefefefef",
"n. c #efefefefffff",
"m. c #e7e7f7f7e7e7",
"M. c #e7e7f7f7efef",
"N. c #efeff7f7efef",
"B. c #efefffffefef",
"V. c #efeffffff7f7",
"C. c Gray97",
"Z. c #f7f7f7f7ffff",
"A. c #f7f7fffff7f7",
"S. c #f7f7ffffffff",
"D. c Gray100",
"F. c None",
/* pixels */
"F.F.F.F.F.F.F.F.F.F.F.F.F.F.F.F.F.F.F.F.F.F.F.F.F.F.F.F.F.F.F.F.",
"F.F.F.F.F.F.F.F.F.F.F.F.F.F.F.F.F.F.F.F.F.F.F.F.F.F.F.F.F.F.F.F.",
"F.F.F.F.F.3.R Q 1.t.t.F.F.F.F.F.F.F.F.F.F.F.F.F.F.F.F.F.F.F.F.F.",
"F.F.F.F.F.;.6.Z.D.C.d.y.t.3.t.F.F.F.F.F.F.F.F.F.F.F.F.F.F.F.F.F.",
"F.F.F.F.F.T n.D.D.D.D.D.D.C.c.d.s.3.F.F.F.F.F.F.F.F.F.F.F.F.F.F.",
"F.F.F.F.3.^ D.D.D.D.D.D.D.D.D.D.D.l.+.F.F.F.F.F.F.F.F.F.F.F.F.F.",
"F.F.F.F.;.9.D.D.D.D.D.D.D.D.D.D.D.p.h =.F.F.F.F.F.F.F.F.F.F.F.F.",
"F.F.F.F.~ n.D.D.D.D.D.D.D.D.D.D.A.:.t X.F.F.F.F.F.F.F.F.F.F.F.F.",
"F.F.F.3.( D.D.D.D.D.D.D.D.D.D.D.N. .8 a <.s.t.t.3.F.F.F.F.F.F.F.",
"F.F.F.%.9.D.D.D.D.D.D.D.D.D.D.D.s.x 8 6 <.D.D.D.b.d.u.t.3.3.F.F.",
"F.F.F.~ Z.D.D.D.D.D.D.D.D.D.D.D.e.s 7 0 d.D.D.D.D.D.D.D.C.k.>.c ",
"F.F.3._ D.D.D.D.D.D.D.D.D.D.D.A.*.r 7 s S.D.D.D.D.D.D.D.S.B.2.% ",
"F.F.%.0.D.D.D.D.D.D.D.D.D.D.D.v.[ 8 - [ D.D.D.D.D.D.D.D.A.M...w ",
"F.F.~ Z.D.D.D.D.D.D.D.D.D.D.D.a.z 7 7 ,.D.D.D.D.D.D.D.D.V.m.v g ",
"F.1.) D.D.D.D.D.D.D.D.D.D.D.D.w.i 8 0 d.D.D.D.D.D.D.D.D.B.z.p ] ",
"F.@.q.D.D.D.D.D.D.D.D.D.D.D.B.&.q 7 d D.D.D.D.D.D.D.D.S.M.a.; $.",
"F.! S.D.D.D.D.D.D.D.D.D.D.D.l.' 7 - { D.D.D.D.D.D.D.D.S.m.e.& <.",
"1.5.D.D.D.D.D.D.D.D.D.D.D.D.p.h 8 7 <.D.D.D.D.D.D.D.D.A.M.&.; 8.",
"@.f.D.D.D.D.D.D.D.D.D.D.D.A.,.i 7 0 d.D.D.D.D.D.D.D.D.B.m.' w F.",
"E H ` f.Z.D.D.D.D.D.D.D.D.M.O.r 7 a S.D.D.D.D.D.D.D.D.M.k.s k F.",
"F A S S G / 7.h.Z.D.D.D.D.s.v 8 - [ D.D.D.D.D.D.D.D.S.M.j.8 ] F.",
"3.%.P C Z S S S D W ` 4.g.v.h 7 - >.D.D.D.D.D.D.D.D.A.m.e.$ =.F.",
"F.F.F.3.#.L M Z S S B m 2 Y 2.7 t c.D.D.D.D.D.D.D.D.V.M.>.# 1.F.",
"F.F.F.F.F.F.<.} K V B m 1 , b.j 3.D.D.D.D.D.D.D.D.D.B.x. .5 t.F.",
"F.F.F.F.F.F.F.F.F.<.| J n : c c.D.D.D.D.D.D.D.D.D.D.M.z.k d F.F.",
"F.F.F.F.F.F.F.F.F.F.F.F.<.I . t.V.C.Z.D.D.D.D.D.D.S.m.j.y U F.F.",
"F.F.F.F.F.F.F.F.F.F.F.F.F.<.+ > , < 4 e b =.i.C.D.D.V.a.= o.F.F.",
"F.F.F.F.F.F.F.F.F.F.F.F.F.F.| N 3 : O         @ p X.t.c.- <.F.F.",
"F.F.F.F.F.F.F.F.F.F.F.F.F.F.F.t.3.-.| l p % X         o * 3.F.F.",
"F.F.F.F.F.F.F.F.F.F.F.F.F.F.F.F.F.F.F.F.F.3.<.+.U f 9 @ u F.F.F.",
"F.F.F.F.F.F.F.F.F.F.F.F.F.F.F.F.F.F.F.F.F.F.F.F.F.F.F.F.F.F.F.F.",
"F.F.F.F.F.F.F.F.F.F.F.F.F.F.F.F.F.F.F.F.F.F.F.F.F.F.F.F.F.F.F.F."
};
