/* XPM */
static char *magick[] = {
/* columns rows colors chars-per-pixel */
"32 32 181 2",
"   c #080808083939",
".  c #000000004a4a",
"X  c #080808084242",
"o  c #000000005252",
"O  c #000000005a5a",
"+  c #101010104242",
"@  c #101018184a4a",
"#  c #101010105a5a",
"$  c #000000006363",
"%  c #000000006b6b",
"&  c #000000007373",
"*  c #000000007b7b",
"=  c #080810106b6b",
"-  c #101010107b7b",
";  c #181821214a4a",
":  c #212121214a4a",
">  c #292929294a4a",
",  c #212121215252",
"<  c #212121215a5a",
"1  c #393939395a5a",
"2  c #212121216b6b",
"3  c #292929296363",
"4  c #292929296b6b",
"5  c #393939397373",
"6  c #424242425a5a",
"7  c #5a5a5a5a5a5a",
"8  c #4a4a4a4a6363",
"9  c #4a4a4a4a7b7b",
"0  c #5a5a5a5a6363",
"q  c #525252527b7b",
"w  c #5a5a5a5a7373",
"e  c #5a5a5a5a7b7b",
"r  c #6b6b6b6b7b7b",
"t  c Gray45",
"y  c #737373737b7b",
"u  c #7b7b7b7b7b7b",
"i  c #000000008484",
"p  c #000000009494",
"a  c #000008089494",
"s  c #00000000a5a5",
"d  c #00000000adad",
"f  c #08080808a5a5",
"g  c #08080808adad",
"h  c #00000000b5b5",
"j  c #00000000bdbd",
"k  c #08081010adad",
"l  c #08081010bdbd",
"z  c #10101010a5a5",
"x  c #18181818adad",
"c  c #212129298c8c",
"v  c #313131318c8c",
"b  c #29292929a5a5",
"n  c #31313939b5b5",
"m  c #00000808c6c6",
"M  c #08080808cece",
"N  c #00000808d6d6",
"B  c #08081010d6d6",
"V  c #08081010dede",
"C  c #10101010dede",
"Z  c #00000808efef",
"A  c #08080808e7e7",
"S  c #08081010efef",
"D  c #08081010f7f7",
"F  c #08081010ffff",
"G  c #10101010e7e7",
"H  c #10101010efef",
"J  c #10101818efef",
"K  c #10101818f7f7",
"L  c #10101818ffff",
"P  c #18181818ffff",
"I  c #18182121e7e7",
"U  c #18182121f7f7",
"Y  c #18182121ffff",
"T  c #21212121c6c6",
"R  c #21212929dede",
"E  c #29292929dede",
"W  c #29293131dede",
"Q  c #31313939dede",
"!  c #39393939d6d6",
"~  c #21212121efef",
"^  c #29292929e7e7",
"/  c #21212121f7f7",
"(  c #21212929f7f7",
")  c #21212929ffff",
"_  c #29292929ffff",
"`  c #29293131f7f7",
"'  c #29293131ffff",
"]  c #31313939e7e7",
"[  c #31313131ffff",
"{  c #31313939ffff",
"}  c #39393939ffff",
"|  c #39394242a5a5",
" . c #39394242dede",
".. c #39394242e7e7",
"X. c #39394242f7f7",
"o. c #39394242ffff",
"O. c #42424a4a8c8c",
"+. c #5a5a5a5a8c8c",
"@. c #5a5a6363a5a5",
"#. c #5a5a6363bdbd",
"$. c #636363639494",
"%. c #636363639c9c",
"&. c #7b7b7b7b8484",
"*. c #63636363bdbd",
"=. c #6b6b6b6bbdbd",
"-. c #73737373a5a5",
";. c #7b7b7b7badad",
":. c #73737373bdbd",
">. c #7b7b7b7bb5b5",
",. c #42424a4acece",
"<. c #4a4a4a4ac6c6",
"1. c #4a4a4a4acece",
"2. c #42424242d6d6",
"3. c #42424a4ad6d6",
"4. c #42424a4adede",
"5. c #4a4a4a4ad6d6",
"6. c #52525252c6c6",
"7. c #5a5a5a5ac6c6",
"8. c #5a5a5a5acece",
"9. c #52525252d6d6",
"0. c #42424a4ae7e7",
"q. c #42424a4affff",
"w. c #4a4a5252ffff",
"e. c #52525a5af7f7",
"r. c #52525a5affff",
"t. c #5a5a5a5af7f7",
"y. c #5a5a5a5affff",
"u. c #5a5a6363d6d6",
"i. c #63636363cece",
"p. c #6b6b6b6bc6c6",
"a. c #73737373c6c6",
"s. c #63636363ffff",
"d. c #63636b6bffff",
"f. c #6b6b7373ffff",
"g. c #73737b7bffff",
"h. c #7b7b7b7bffff",
"j. c #7b7b8484a5a5",
"k. c #7b7b8484ffff",
"l. c #848484848484",
"z. c #848484848c8c",
"x. c Gray55",
"c. c #8c8c8c8c9494",
"v. c Gray58",
"b. c #949494949c9c",
"n. c Gray61",
"m. c #8c8c8c8ca5a5",
"M. c #8c8c8c8cadad",
"N. c #84848484b5b5",
"B. c #8c8c8c8cb5b5",
"V. c #8c8c8c8cbdbd",
"C. c #9c9c9c9ca5a5",
"Z. c #94949494bdbd",
"A. c #9c9c9c9cb5b5",
"S. c #9c9c9c9cbdbd",
"D. c #a5a5a5a5a5a5",
"F. c Gray68",
"G. c #a5a5a5a5b5b5",
"H. c #a5a5a5a5bdbd",
"J. c #adadadadb5b5",
"K. c #adadadadbdbd",
"L. c Gray71",
"P. c #b5b5b5b5bdbd",
"I. c Gray74",
"U. c #8c8c8c8ccece",
"Y. c #84848c8cffff",
"T. c #94949494ffff",
"R. c #94949c9cf7f7",
"E. c #94949c9cffff",
"W. c #9c9ca5a5ffff",
"Q. c #bdbdbdbdc6c6",
"!. c #a5a5a5a5ffff",
"~. c #adadb5b5ffff",
"^. c #c6c6c6c6bdbd",
"/. c #c0c0c0c0c0c0",
"(. c #c6c6c6c6c6c6",
"). c #cecececeffff",
"_. c #ceced6d6ffff",
"`. c #e7e7e7e7ffff",
"'. c #efefefefffff",
"]. c Gray100",
"[. c None",
/* pixels */
"[.K.U.Z.I.[.[.[.[.[.[.[.[.[.[.[.I.S.p.8. .] E <.=.B.L.[.[.[.[.[.",
"G.R.!.e.%.I.[.[.[.[.[.[.[.[.[.S.9.f.E.s.f.f.r.q.' D T ;.I.[.[.[.",
"u.'.].~.z n.[.[.[.[.[.[.[.^.>.w._.).r.) U / ( ) { o._ Z n F.[.[.",
"] `.].T.a l.[.[.[.[.[.[.[.N.q.~.h.R k c 9 q q v x I { _ D b L.[.",
"^ Y.W.q.* u [.[.[.[.[.[.J.X.E.o.j @ l.I.(.[.[.^.n.5 m ) ' N O.I.",
"E q.y.( & y [.[.[.[.[.I.1.d.w.M   F.[.[.[.[.[.[.[.^.+.B _ P s b.",
"! o.o.U & y [.[.[.[.[.J.) r.Y % l.[.[.[.[.[.[.[.[.[.I.| Y ) m q ",
"5.{ } ) & y [.[.[.[.[.V.' q.G : I.[.[.[.[.[.[.[.[.[.[.m.J ' B 4 ",
"7.{ { Y & u [.[.[.[.[.N.A Y g 0 [.[.[.[.[.[.[.[.[.[.[.H.G ' C < ",
"=.' { ) % l.[.[.[.[.[.P.z.e r L.[.[.[.[.[.[.[.[.[.[.[.G.K ' V 4 ",
"a.' [ ) $ z.[.[.[.[.[.[.[.[.[.[.[.[.[.[.[.[.[.[.[.[.[.V.[ o.m 8 ",
"M.) ' Y O x.[.[.[.[.[.[.[.[.[.[.[.[.[.[.[.[.[.[.[.[.J...f.) i l.",
"Z./ ' U o v.[.[.[.[.[.[.[.[.[.[.[.[.[.[.[.[.[.[.[.I.2.f.w.m : L.",
"G.~ ' U o n.[.[.[.[.[.[.[.[.[.[.[.[.[.[.[.[.[.[.I.,.g.g.H o x.[.",
"K.~ ' J . C.[.[.[.[.[.[.[.[.[.[.[.[.[.[.[.[.[.P.6.k.g.H $ u [.[.",
"I.W _ G X F.[.[.[.[.[.[.[.[.[.[.[.[.[.[.[.[.I.4.Y.g.H % t I.[.[.",
"I.Q Y C X F.[.[.[.[.[.[.[.[.[.[.[.[.[.[.[.I.9.Y.g.D % 7 I.[.[.[.",
"I.,.Y C + I.[.[.[.[.[.[.[.[.[.[.[.[.[.[.[.:.w.w.S % 0 I.[.[.[.[.",
"[.6.L M ; I.[.[.[.[.[.[.[.[.[.[.[.[.[.[.G.` w.L * 0 I.[.[.[.[.[.",
"[.*.F m > I.[.[.[.[.[.[.[.[.[.[.[.[.[.[.p.o.} d 6 I.[.[.[.[.[.[.",
"[.>.Z h 8 [.[.[.[.[.[.[.[.[.[.[.[.[.[.Q.5.q.P $ v.[.[.[.[.[.[.[.",
"[.A.A h r [.[.[.[.[.[.[.[.[.[.[.[.[.[.I.0.o.S # F.[.[.[.[.[.[.[.",
"[.J.T d z.[.[.[.[.[.[.[.[.[.[.[.[.[.[.K.^ ) K < I.[.[.[.[.[.[.[.",
"[.[.@.& D.[.[.[.[.[.[.[.[.[.[.[.[.[.[.J.l B k w (.[.[.[.[.[.[.[.",
"[.[.L.c.I.[.[.[.[.[.[.[.[.[.[.[.[.[.[.I.b.&.l.I.[.[.[.[.[.[.[.[.",
"[.[.[.[.[.[.[.[.[.[.[.[.[.[.[.[.[.[.[.[.[.[.[.[.[.[.[.[.[.[.[.[.",
"[.[.[.[.[.[.[.[.[.[.[.[.[.[.[.[.[.[.[.[.[.[.[.[.[.[.[.[.[.[.[.[.",
"[.P.=.#.-.L.[.[.[.[.[.[.[.[.[.[.[.[.[.[.V.3.,.m.I.[.[.[.[.[.[.[.",
"I.i.k.d.B e [.[.[.[.[.[.[.[.[.[.[.[.[.H.t.W.w.f n.[.[.[.[.[.[.[.",
"I.] E.h.l 1 I.[.[.[.[.[.[.[.[.[.[.[.[.U.o.Y.} i z.[.[.[.[.[.[.[.",
"I.E F D p 6 (.[.[.[.[.[.[.[.[.[.[.[.[.S.A S N $ v.[.[.[.[.[.[.[.",
"[.j.- = , n.[.[.[.[.[.[.[.[.[.[.[.[.[.^.$.2 3 r I.[.[.[.[.[.[.[."
};
