/* XPM */
static char *magick[] = {
/* columns rows colors chars-per-pixel */
"32 32 114 2",
"   c #212121213939",
".  c #000000005a5a",
"X  c #080808085252",
"o  c #080810104a4a",
"O  c #101010104242",
"+  c #181818184242",
"@  c #000008086363",
"#  c #000000007373",
"$  c #000000007b7b",
"%  c #181818187373",
"&  c #181818187b7b",
"*  c #181821217373",
"=  c #212121214242",
"-  c #313131314242",
";  c #393939395252",
":  c #212121217b7b",
">  c #292929297373",
",  c #4a4a4a4a5252",
"<  c #424242426363",
"1  c #424242426b6b",
"2  c #42424a4a7373",
"3  c #4a4a52527b7b",
"4  c #525252526b6b",
"5  c #5a5a5a5a6363",
"6  c #525252527373",
"7  c #737373737b7b",
"8  c #7b7b7b7b7b7b",
"9  c #000008088484",
"0  c #000000009494",
"q  c #080808089c9c",
"w  c #00000000adad",
"e  c #08080808adad",
"r  c #08080808b5b5",
"t  c #10101818a5a5",
"y  c #10101010bdbd",
"u  c #10101818bdbd",
"i  c #18182121a5a5",
"p  c #00000000c6c6",
"a  c #10101010cece",
"s  c #10101818d6d6",
"d  c #18181818dede",
"f  c #00000808e7e7",
"g  c #08080808efef",
"h  c #10101818f7f7",
"j  c #18181818ffff",
"k  c #18182121ffff",
"l  c #21212121d6d6",
"z  c #29293131d6d6",
"x  c #29293131dede",
"c  c #39393939cece",
"v  c #31313939d6d6",
"b  c #21212929efef",
"n  c #21212121f7f7",
"m  c #21212929f7f7",
"M  c #21212929ffff",
"N  c #29293131e7e7",
"B  c #29293131f7f7",
"V  c #29293131ffff",
"C  c #31313131f7f7",
"Z  c #31313939ffff",
"A  c #39394242c6c6",
"S  c #39394242efef",
"D  c #39394242ffff",
"F  c #4a4a4a4aa5a5",
"G  c #42424242bdbd",
"H  c #4a4a4a4ab5b5",
"J  c #4a4a5252bdbd",
"K  c #52525252adad",
"L  c #5a5a5a5abdbd",
"P  c #5a5a6363bdbd",
"I  c #63636b6b8c8c",
"U  c #7b7b7b7b8484",
"Y  c #6b6b6b6bbdbd",
"T  c #6b6b7373bdbd",
"R  c #73737373a5a5",
"E  c #7b7b7b7bb5b5",
"W  c #42424242c6c6",
"Q  c #4a4a4a4ac6c6",
"!  c #5a5a5a5acece",
"~  c #52525a5ad6d6",
"^  c #4a4a4a4affff",
"/  c #4a4a5252ffff",
"(  c #5a5a6363dede",
")  c #5a5a6363efef",
"_  c #63636363d6d6",
"`  c #73737373c6c6",
"'  c #6b6b7373ffff",
"]  c #848484848c8c",
"[  c Gray55",
"{  c #949494949c9c",
"}  c Gray61",
"|  c #84848484b5b5",
" . c #8c8c9494b5b5",
".. c #94949494a5a5",
"X. c #9c9c9c9ca5a5",
"o. c #9c9c9c9cadad",
"O. c #94949494b5b5",
"+. c #9c9c9c9cbdbd",
"@. c #a5a5a5a5a5a5",
"#. c #adadadada5a5",
"$. c #a5a5a5a5b5b5",
"%. c #adadadadb5b5",
"&. c #adadb5b5b5b5",
"*. c Gray71",
"=. c Gray74",
"-. c #84848484ffff",
";. c #8c8c9494ffff",
":. c #9c9ca5a5ffff",
">. c #adadb5b5ffff",
",. c #c0c0c0c0c0c0",
"<. c #c6c6c6c6c6c6",
"1. c #cecececeffff",
"2. c #ceced6d6ffff",
"3. c None",
/* pixels */
"3.3.3.3.3.3.3.3.3.3.3.3.3.3.3.3.3.3.3.3.3.3.3.3.3.3.3.3.3.3.3.3.",
"3.3.3.3.3.3.3.3.3.3.3.3.3.3.3.3.3.3.3.3.3.3.3.3.3.3.3.3.3.3.3.3.",
"3.3.3.3.3.3.3.3.3.3.3.3.3.3.3.3.3.3.3.3.3.3.3.3.3.3.3.3.3.3.3.3.",
"3.3.3.3.3.3.3.3.3.3.3.3.3.3.3.3.3.3.3.3.3.3.3.3.3.3.3.3.3.3.3.3.",
"%.Q H o.3.=.O.W K @.3.3.3.3.3.3.3.3.3.3.3.3.=.` v F *.3.%.~ x R ",
"_ :.D : <.$.) :.N 1 3.3.3.3.3.3.3.3.3.3.3.3. .-.:.s ] 3.Y ;.-.i ",
"S 2.( o =.+.^ 1.A ; 3.3.3.3.3.3.3.3.3.3.3.3.E ' >.t 7 3.! -.;.& ",
"N / l + =.$.m / u ; 3.3.3.3.3.3.3.3.3.3.3.3.| C D q 7 3.P V Z % ",
"c Z d + =.%.b Z y ; 3.3.3.3.3.3.3.3.3.3.3.3...B V q 8 3.T V M * ",
"L M a   =.=.z V e , 3.3.3.3.3.3.3.3.3.3.3.3.=.N M 9 [ 3.E n k > ",
"E M r - =.=.G k 0 5 3.3.3.3.3.3.3.3.3.3.3.3.=.v j @ } 3.o.l h 2 ",
"O.h 0 , 3.<.| g # 8 3.3.3.3.3.3.3.3.3.3.3.3.=.J f O @.3.=.z p 4 ",
"&.r . 8 3.3...w X #.3.3.3.3.3.3.3.3.3.3.3.3.3.R 0 = *.3.=.F $ U ",
"=.I < *.3.3.=.3 7 3.3.3.3.3.3.3.3.3.3.3.3.3.3.%.6 { <.3.3.X.6 *.",
"3.3.3.3.3.3.3.3.3.3.3.3.3.3.3.3.3.3.3.3.3.3.3.3.3.3.3.3.3.3.3.3.",
"3.3.3.3.3.3.3.3.3.3.3.3.3.3.3.3.3.3.3.3.3.3.3.3.3.3.3.3.3.3.3.3.",
"3.3.3.3.3.3.3.3.3.3.3.3.3.3.3.3.3.3.3.3.3.3.3.3.3.3.3.3.3.3.3.3.",
"3.3.3.3.3.3.3.3.3.3.3.3.3.3.3.3.3.3.3.3.3.3.3.3.3.3.3.3.3.3.3.3.",
"3.3.3.3.3.3.3.3.3.3.3.3.3.3.3.3.3.3.3.3.3.3.3.3.3.3.3.3.3.3.3.3.",
"3.3.3.3.3.3.3.3.3.3.3.3.3.3.3.3.3.3.3.3.3.3.3.3.3.3.3.3.3.3.3.3.",
"3.3.3.3.3.3.3.3.3.3.3.3.3.3.3.3.3.3.3.3.3.3.3.3.3.3.3.3.3.3.3.3.",
"3.3.3.3.3.3.3.3.3.3.3.3.3.3.3.3.3.3.3.3.3.3.3.3.3.3.3.3.3.3.3.3.",
"3.3.3.3.3.3.3.3.3.3.3.3.3.3.3.3.3.3.3.3.3.3.3.3.3.3.3.3.3.3.3.3.",
"3.3.3.3.3.3.3.3.3.3.3.3.3.3.3.3.3.3.3.3.3.3.3.3.3.3.3.3.3.3.3.3.",
"3.3.3.3.3.3.3.3.3.3.3.3.3.3.3.3.3.3.3.3.3.3.3.3.3.3.3.3.3.3.3.3.",
"3.3.3.3.3.3.3.3.3.3.3.3.3.3.3.3.3.3.3.3.3.3.3.3.3.3.3.3.3.3.3.3.",
"3.3.3.3.3.3.3.3.3.3.3.3.3.3.3.3.3.3.3.3.3.3.3.3.3.3.3.3.3.3.3.3.",
"3.3.3.3.3.3.3.3.3.3.3.3.3.3.3.3.3.3.3.3.3.3.3.3.3.3.3.3.3.3.3.3.",
"3.3.3.3.3.3.3.3.3.3.3.3.3.3.3.3.3.3.3.3.3.3.3.3.3.3.3.3.3.3.3.3.",
"3.3.3.3.3.3.3.3.3.3.3.3.3.3.3.3.3.3.3.3.3.3.3.3.3.3.3.3.3.3.3.3.",
"3.3.3.3.3.3.3.3.3.3.3.3.3.3.3.3.3.3.3.3.3.3.3.3.3.3.3.3.3.3.3.3.",
"3.3.3.3.3.3.3.3.3.3.3.3.3.3.3.3.3.3.3.3.3.3.3.3.3.3.3.3.3.3.3.3."
};
