/* XPM */
static char *magick[] = {
/* columns rows colors chars-per-pixel */
"32 32 7 1",
"  c Gray0",
". c Yellow",
"X c #848482828484",
"o c #c0c0c0c0c0c0",
"O c #c6c6c3c3c6c6",
"+ c Gray100",
"@ c None",
/* pixels */
"@@@@@@@@@@@@@@@@@@@@@@@@@@@@@@@@",
"@@@@@@@@@@@@@@@@@@@@@@@@@@@@@@@@",
"@@@@@@@@@@@                @@@@@",
"@@@@@@@@@@                  @@@@",
"@@@@@@@@@  +++++++++++++++  @@@@",
"@@@@@@@@  +++++++++++++++  @@@@@",
"@@@@@@@@  ++          +++  @@@@@",
"@@@@@@@  +++          ++  @@@@@@",
"@@@@@@@  +++++++++++++++  @@@@@@",
"@@@@@@  +++++++++++++++  @@@@@@@",
"@@@@@@  ++          +++      @@@",
"@@@@@  +++          ++        @@",
"@@@@@ ++++++++++++++++   O O   @",
"@@@@  +++++++++++++++   O O     ",
"@@                     O O   O  ",
"@                       O   O O ",
"   OOOOOOOOOOOOOOOOOOO O   O O  ",
"  OOOOOOOOOOOOOOOOOOOO    O O O ",
"                         O O O  ",
"                          O O   ",
"  OOOOOOOOOOOOXXXXXXOOOO   O   @",
"  OOOOOOOOOOOOXXXXXXOOOO  O   @@",
"  OOOOOOOOOOOO......OOOO      @@",
"  OOOOOOOOOOOO......OOOO   OO @@",
"                          OO  @@",
"@                        OO  @@@",
"@@  OOOOOOOOOOOOOOOOOO  OO  @@@@",
"@@@  OOOOOOOOOOOOOOOOO  O  @@@@@",
"@@@@                      @@@@@@",
"@@@@@                    @@@@@@@",
"@@@@@@@@@@@@@@@@@@@@@@@@@@@@@@@@",
"@@@@@@@@@@@@@@@@@@@@@@@@@@@@@@@@"
};
