/* XPM */
static char *magick[] = {
/* columns rows colors chars-per-pixel */
"32 32 164 2",
"   c #181818181818",
".  c Gray13",
"X  c Gray16",
"o  c #313131313131",
"O  c #393939393939",
"+  c Gray26",
"@  c Gray29",
"#  c Gray32",
"$  c #52525a5a5a5a",
"%  c #5a5a5a5a5a5a",
"&  c #5a5a63635a5a",
"*  c #5a5a63636363",
"=  c #5a5a6b6b6363",
"-  c #5a5a6b6b6b6b",
";  c #5a5a73736b6b",
":  c #63635a5a6363",
">  c Gray39",
",  c #63636b6b6b6b",
"<  c #6b6b63636b6b",
"1  c Gray42",
"2  c #636373736b6b",
"3  c #636373737373",
"4  c #63637b7b7373",
"5  c #6b6b7b7b7373",
"6  c #73736b6b7373",
"7  c Gray45",
"8  c #7b7b73737373",
"9  c #7b7b7b7b7b7b",
"0  c #636384847b7b",
"q  c #6b6b84847b7b",
"w  c #6b6b8c8c7b7b",
"e  c #5a5a9c9c8484",
"r  c #5a5aa5a58484",
"t  c #6b6b84848c8c",
"y  c #636394948484",
"u  c #6b6b94948c8c",
"i  c #737394948484",
"p  c #737394948c8c",
"a  c #73739c9c8c8c",
"s  c #7b7b94948c8c",
"d  c #7b7b9c9c8c8c",
"f  c #7b7b94949c9c",
"g  c #6363adad8c8c",
"h  c #6b6ba5a58c8c",
"j  c #6b6badad8c8c",
"k  c #6b6badad9494",
"l  c #7373a5a59494",
"z  c #7373adad9494",
"x  c #7b7ba5a59494",
"c  c #7b7ba5a59c9c",
"v  c #7b7badad9494",
"b  c #7b7badad9c9c",
"n  c #7373b5b59494",
"m  c #7373b5b59c9c",
"M  c #7373bdbd9c9c",
"N  c #7b7bb5b59c9c",
"B  c #7b7bbdbd9c9c",
"V  c #7b7bb5b5a5a5",
"C  c #7b7bbdbda5a5",
"Z  c #7b7bc6c6a5a5",
"A  c #848484848484",
"S  c Gray55",
"D  c Gray58",
"F  c Gray61",
"G  c #84848484a5a5",
"H  c #8c8c8484b5b5",
"J  c #8c8c8484bdbd",
"K  c #84849c9cb5b5",
"L  c #8c8cadad9c9c",
"P  c #8484b5b59c9c",
"I  c #8c8ca5a5adad",
"U  c #8c8ca5a5bdbd",
"Y  c #8484b5b5a5a5",
"T  c #8484bdbda5a5",
"R  c #8c8cb5b5a5a5",
"E  c #8c8cbdbda5a5",
"W  c #9c9cadadb5b5",
"Q  c #9494bdbdadad",
"!  c #9c9cbdbdb5b5",
"~  c #a5a5a5a5a5a5",
"^  c Gray68",
"/  c Gray71",
"(  c Gray74",
")  c #8c8c8484c6c6",
"_  c #94948c8ccece",
"`  c #94949494cece",
"'  c #94949c9cd6d6",
"]  c #9494b5b5cece",
"[  c #adad9494efef",
"{  c #a5a5a5a5d6d6",
"}  c #a5a5bdbdcece",
"|  c #a5a5b5b5d6d6",
" . c #a5a5a5a5efef",
".. c #a5a5adade7e7",
"X. c #a5a5adadefef",
"o. c #adada5a5f7f7",
"O. c #a5a5b5b5e7e7",
"+. c #adadb5b5efef",
"@. c #b5b5b5b5f7f7",
"#. c #bdbdb5b5ffff",
"$. c #bdbdbdbdf7f7",
"%. c #8484c6c6a5a5",
"&. c #8484c6c6adad",
"*. c #8484ceceadad",
"=. c #8c8cc6c6adad",
"-. c #8c8cceceadad",
";. c #8c8cc6c6b5b5",
":. c #8c8cceceb5b5",
">. c #8c8cd6d6b5b5",
",. c #9494c6c6adad",
"<. c #9494c6c6b5b5",
"1. c #9494c6c6bdbd",
"2. c #9c9ccecebdbd",
"3. c #9494d6d6b5b5",
"4. c #9494d6d6bdbd",
"5. c #9494dedeb5b5",
"6. c #9494dedebdbd",
"7. c #9c9cdedebdbd",
"8. c #9c9ce7e7bdbd",
"9. c #a5a5c6c6bdbd",
"0. c #9494c6c6c6c6",
"q. c #9c9cc6c6c6c6",
"w. c #9c9ccecec6c6",
"e. c #9c9cdedec6c6",
"r. c #9c9ce7e7c6c6",
"t. c #adadc6c6dede",
"y. c #a5a5d6d6c6c6",
"u. c #a5a5dedecece",
"i. c #adaddedec6c6",
"p. c #adaddedecece",
"a. c #bdbdd6d6cece",
"s. c #a5a5cecee7e7",
"d. c #b5b5cecee7e7",
"f. c #bdbdc6c6efef",
"g. c #bdbdceceffff",
"h. c #bdbddedeefef",
"j. c #a5a5e7e7cece",
"k. c #adadefefcece",
"l. c #b5b5e7e7d6d6",
"z. c #b5b5efefd6d6",
"x. c #bdbdefefd6d6",
"c. c #b5b5f7f7dede",
"v. c #b5b5ffffdede",
"b. c #bdbdf7f7dede",
"n. c #bdbdffffdede",
"m. c #bdbde7e7e7e7",
"M. c #c0c0c0c0c0c0",
"N. c #cececececece",
"B. c Gray84",
"V. c #c6c6ceceffff",
"C. c #c6c6d6d6ffff",
"Z. c #c6c6f7f7dede",
"A. c #ceceefefe7e7",
"S. c #c6c6e7e7f7f7",
"D. c #ceceefefffff",
"F. c #c6c6f7f7e7e7",
"G. c #c6c6ffffe7e7",
"H. c #ceceffffe7e7",
"J. c #ceceffffefef",
"K. c #d6d6f7f7efef",
"L. c #d6d6fffff7f7",
"P. c #dedefffff7f7",
"I. c #dedeffffffff",
"U. c None",
/* pixels */
"U.U.U.U.U.U.U.U.U.U.U.U.U.U.U.U.U.U.U.U.U.U.U.U.U.U.U.U.U.U.U.U.",
"U.U.U.U.U.U.U.U.U.U.U.U.U.U.U.U.U.U.U.U.U.U.U.U.U.U.U.U.U.U.U.U.",
"U.U.U.U.U.U.U.U.U.U.U.U.U.U.U.U.U.U.U.U.U.U.U.U.U.U.U.U.U.U.U.U.",
"U.U.U.U.U.( ~ D 9 7 7 7 S ^ U.U.U.U.U.U.U.U.U.U.U.U.U.U.U.U.U.U.",
"U.U.U.U.^ S * = q s p w - % A / U.U.U.U.U.U.U.U.U.U.U.U.U.U.U.U.",
"U.U.U.~ 1 ; 9.L.I.P.L.H.l.R * > ^ U.U.U.U.U.U.U.U.U.U.U.U.U.U.U.",
"U.U.~ * $ a.K.G.n.x.z.k.p.k.4.& % ^ U.U.U.U.U.U.U.U.U.U.U.U.U.U.",
"U./ 7 4 / z.v.d.m.h.d.t.w.6.3.=.4 1 ( U.U.U.U.U.U.U.U.U.U.U.U.U.",
"( S 2 A.b.b.S.D.C.g.g.#. .U ,.3.,.* D U.U.U.U.U.U.U.U.U.U.U.U.U.",
"^ > ! L.c.h.D.f.} q.q.| @.[ I -.2.i : ( U.U.U.U.U.U.U.U.U.U.U.U.",
"F 3 F.H.z.V.$.W 7.8.6.3.{ o.H %.! Y $ ~ U.U.U.U.U.U.U.U.U.U.U.U.",
"9 d K.F.k.u.y.2.r.2.3.<.O. .G T <.E ; S U.U.U.U.U.U.U.U.U.U.U.U.",
"7 L J.x.j.r.7.e.6.5.1.s.X.H x %.Q E 4 8 U.U.U.U.U.U.U.U.U.U.U.U.",
"1 R F.z.y.8.7.4.3.0.+.X.J c B C E Y q 7 U.U.U.U.U.U.U.U.U.U.U.U.",
"7 c Z.l.7.4.4.3.:...X.H v Z B B R Y 4 8 U.U.U.U.U.U.U.U.U.U.U.U.",
"8 s x.i.4.3.3.-.;.X._ x Z B m N Y b = S U.U.U.U.U.U.U.U.U.U.U.U.",
"D 5 y.i.>.:.-.*.=.I K N B m n z P a $ ~ U.U.U.U.U.U.U.U.U.U.U.U.",
"/ * Q y.-.-.&.&.T ] ' f n n k k b 0 1 ( U.U.U.U.U.U.U.U.U.U.U.U.",
"U.A 5 <.&.%.%.Z V ` ) t n k j h a & S U.U.U.U.U.U.U.U.U.U.U.U.U.",
"U./ > w Z C B N M l u j j g r e 2 1 / N./ / U.U.U.U.U.U.U.U.U.U.",
"U.U.~ % 5 N T C P N N b z h y ; % / ( / B.% S U.U.U.U.U.U.U.U.U.",
"U.U.U.~ % 5 x P Y Y b v l i , % ^ U.U./ % o + 1 / U.U.U.U.U.U.U.",
"U.U.U.U.^ 6 $ , q q w 5 > # A ( U.U.U.U./ # . O @ D U.U.U.U.U.U.",
"U.U.U.U.U.U.^ S 6 > < 7 S / U.U.U.U.U.U.U.( S X o O 1 / U.U.U.U.",
"U.U.U.U.U.U.U.U.U.U.U.U.U.U.U.U.U.U.U.U.U.U.U.^ @ . o @ F U.U.U.",
"U.U.U.U.U.U.U.U.U.U.U.U.U.U.U.U.U.U.U.U.U.U.U.U.( 9 . X X 7 ( U.",
"U.U.U.U.U.U.U.U.U.U.U.U.U.U.U.U.U.U.U.U.U.U.U.U.U.U.~ +   X @ ~ ",
"U.U.U.U.U.U.U.U.U.U.U.U.U.U.U.U.U.U.U.U.U.U.U.U.U.U.U.( 9   . O ",
"U.U.U.U.U.U.U.U.U.U.U.U.U.U.U.U.U.U.U.U.U.U.U.U.U.U.U.U.U.~ O S ",
"U.U.U.U.U.U.U.U.U.U.U.U.U.U.U.U.U.U.U.U.U.U.U.U.U.U.U.U.U.U.U.U.",
"U.U.U.U.U.U.U.U.U.U.U.U.U.U.U.U.U.U.U.U.U.U.U.U.U.U.U.U.U.U.U.U.",
"U.U.U.U.U.U.U.U.U.U.U.U.U.U.U.U.U.U.U.U.U.U.U.U.U.U.U.U.U.U.U.U."
};
