/* XPM */
static char *magick[] = {
/* columns rows colors chars-per-pixel */
"32 32 3 1",
"  c None",
"o c #000000000000",
"a c #000000008000",
/* pixels */
"o                    aaaaaa     ",
"oo                 aaaaaaaaaa   ",
"ooo              aaaaaaaaaaaaa  ",
"oooo            aaaaaa   aaaaaa ",
"ooooo          aaaaa       aaaaa",
"oooooo        aaaaa         aaaa",
"ooooooo       aaaa          aaaa",
"oooooooo      aaaa          aaaa",
"ooooooooo     aaaaa         aaaa",
"oooooooooo    aaaaa        aaaaa",
"ooooooooooo     aa        aaaaa ",
"oooooooooooo             aaaaaa ",
"ooooooooooooo           aaaaaa  ",
"oooooooooooooo         aaaaaa   ",
"ooooooooooooooo       aaaaaa    ",
"oooooooooooooooo     aaaaaa     ",
"ooooooooooooooooo   aaaaaa      ",
"oooooooooooooooooo  aaaaaa      ",
"oooooooooo          aaaaaa      ",
"oooooooooo           aaaa       ",
"oooo  ooooo                     ",
"ooo   ooooo                     ",
"oo     ooooo         aaaa       ",
"o      ooooo        aaaaaa      ",
"        ooooo       aaaaaa      ",
"        ooooo        aaaa       ",
"         ooooo                  ",
"         ooooo                  ",
"          ooooo                 ",
"          ooooo                 ",
"           ooooo                ",
"           ooo                  "};
