/* XPM */
static char *copy[] = {
/* width height ncolors chars_per_pixel */
"22 22 86 2",
/* colors */
"Qt c None",
".f c #000000",
".q c #000400",
"#b c #080408",
".e c #080808",
"#m c #080831",
"#e c #080839",
".k c #080c08",
"#i c #080c39",
".9 c #080c41",
".W c #080c4a",
".p c #100c10",
"#a c #100c41",
".X c #100c4a",
".V c #100c52",
".d c #101010",
".L c #101052",
".F c #10105a",
".E c #101062",
".G c #101410",
".D c #101462",
".j c #181418",
".c c #181818",
".C c #181862",
".o c #181c18",
"#j c #181c6a",
".b c #201c20",
".i c #202020",
".B c #20206a",
".a c #202420",
".# c #292429",
"#. c #29286a",
".A c #292873",
"#k c #292894",
".U c #292c73",
".3 c #312c73",
".z c #313073",
".M c #31307b",
"#c c #3130ac",
".x c #313473",
".y c #39347b",
".4 c #4140de",
".N c #4144e6",
".8 c #6a65b4",
".7 c #8381bd",
".u c #8b858b",
"#r c #8b898b",
".l c #949194",
".2 c #949594",
"#l c #9c959c",
"#q c #9c999c",
"#h c #9c9d9c",
".t c #a4a1a4",
".1 c #a4a5a4",
".T c #aca5ac",
"#t c #acaaac",
"#d c #acaeac",
".0 c #b4aeb4",
".Z c #b4b2b4",
".6 c #b4b2de",
".S c #b4b6b4",
"#g c #bdb6bd",
"#p c #bdbebd",
".Y c #c5bec5",
".s c #c5c2c5",
"#o c #c5c6c5",
".R c #cdcacd",
"#s c #cdcecd",
".K c #d5ced5",
".Q c #d5d2d5",
"#n c #d5d6d5",
".P c #ded6de",
".5 c #ded6ee",
".n c #dedade",
"## c #dedede",
".w c #e6dee6",
".r c #e6e2e6",
".m c #e6e6e6",
".O c #eee6ee",
".h c #eeeaee",
".v c #eeeeee",
".J c #f6eef6",
".I c #f6f2f6",
"#f c #f6f6f6",
".H c #fffaff",
".g c #ffffff",
/* pixels */
"QtQtQtQtQtQtQtQtQtQtQtQtQtQtQtQtQtQtQtQtQtQt",
"Qt.#.a.a.b.c.d.e.fQtQtQtQtQtQtQtQtQtQtQtQtQt",
"Qt.#.g.g.g.g.g.g.f.fQtQtQtQtQtQtQtQtQtQtQtQt",
"Qt.a.g.g.g.g.g.g.f.h.fQtQtQtQtQtQtQtQtQtQtQt",
"Qt.i.g.c.j.k.l.g.f.m.n.fQtQtQtQtQtQtQtQtQtQt",
"Qt.b.g.g.g.g.g.g.f.f.f.f.fQtQtQtQtQtQtQtQtQt",
"Qt.o.g.d.p.q.l.g.r.s.t.u.fQtQtQtQtQtQtQtQtQt",
"Qt.o.g.g.g.g.g.g.v.w.x.y.z.z.A.B.C.DQtQtQtQt",
"Qt.c.g.p.e.f.f.f.f.f.y.g.g.g.g.g.g.E.FQtQtQt",
"Qt.G.g.g.g.H.I.J.w.K.z.g.g.g.g.g.g.E.h.LQtQt",
"Qt.e.g.f.f.f.f.f.f.f.M.g.o.d.p.N.g.F.O.P.LQt",
"Qt.f.J.r.Q.R.s.s.S.T.U.g.g.g.g.g.H.F.V.L.W.X",
"Qt.f.w.R.Y.Z.0.1.t.2.3.g.j.k.e.4.g.5.6.7.8.9",
"QtQt.f.f.f.f.f.f.f.f#..g.g.g.g.g.H.I##.R.Z#a",
"QtQtQtQtQtQtQtQtQtQt.A.g.d.e#b.f.f.f.f#c#d#e",
"QtQtQtQtQtQtQtQtQtQt.B.g.g.g#f#f.v.r.R#g#h#i",
"QtQtQtQtQtQtQtQtQtQt#j.g.f.f.f.f.f.f.f#k#l#m",
"QtQtQtQtQtQtQtQtQtQt.F.I.r#n.R#o#p#g.1#q#r#m",
"QtQtQtQtQtQtQtQtQtQt.F###s#p#g#d#t#h#l#r.u#m",
"QtQtQtQtQtQtQtQtQtQtQt.L.9.9#e#i#e#i#m#m#mQt",
"QtQtQtQtQtQtQtQtQtQtQtQtQtQtQtQtQtQtQtQtQtQt",
"QtQtQtQtQtQtQtQtQtQtQtQtQtQtQtQtQtQtQtQtQtQt"
};
