/* XPM */
static char *designer[] = {
/* width height ncolors chars_per_pixel */
"22 22 34 1",
/* colors */
". c None",
"# c #000000",
"z c #000400",
"j c #000800",
"r c #080800",
"c c #080c00",
"y c #081000",
"v c #101400",
"o c #182400",
"B c #203000",
"F c #293000",
"d c #293800",
"a c #394400",
"p c #394800",
"A c #394c00",
"b c #415000",
"i c #415500",
"u c #4a5d00",
"s c #5a6d00",
"m c #5a7100",
"D c #5a7500",
"t c #627d08",
"x c #6a8108",
"E c #738d08",
"k c #7b9908",
"e c #839d08",
"C c #83a508",
"n c #8ba508",
"h c #8baa08",
"w c #8bae08",
"q c #94ba08",
"f c #9cbe08",
"g c #9cc208",
"l c #a4c608",
/* pixels */
".......#..............",
"........#.............",
"........##............",
".........#............",
".........##.##........",
"..........###.........",
".......#..##..........",
"#.....######..........",
".##....###.##.........",
"..###..####.#.........",
"....####.##.##........",
".....####....##.......",
"....##..###..##abc#...",
"....#.....###defghij..",
"...........##kllfmno..",
"............pflqbrst#.",
"............ugfb#vwx#.",
"............ynsrvzAB#.",
"............#iCswp##..",
".............joDEF##..",
"...............###..##",
"....................##"
};
