/* XPM */
static char *find[] = {
/* width height ncolors chars_per_pixel */
"22 22 131 2",
/* colors */
"Qt c None",
".g c #000000",
".x c #080808",
"#a c #080c08",
".n c #100c10",
".m c #101010",
"#q c #101410",
"#G c #104c83",
".w c #181410",
"## c #181418",
".R c #181818",
"#7 c #181c18",
"#H c #1828bd",
"aa c #182cac",
"#X c #182cbd",
"a# c #1844bd",
"#W c #188de6",
".l c #201c20",
"#O c #2028c5",
"#9 c #202ccd",
"#3 c #2034cd",
"#V c #207dde",
"#M c #2081e6",
"#N c #2089e6",
"#2 c #2091e6",
".f c #292429",
"#L c #313c6a",
"#8 c #313c8b",
".e c #393c39",
"#Y c #413862",
"#K c #413c41",
"#4 c #413c73",
"#p c #414441",
"#P c #4a406a",
"#. c #4a4441",
"#I c #4a446a",
".d c #4a484a",
".c c #4a4c4a",
"#1 c #4a50a4",
"a. c #4a55a4",
"#U c #4a5dac",
"#m c #4ac2b4",
"#B c #524462",
"#v c #52504a",
"#C c #5a5073",
".b c #5a555a",
".a c #626562",
".7 c #62b2a4",
".4 c #6a696a",
".W c #6a6d6a",
".8 c #6abaac",
".Y c #736d6a",
".X c #73716a",
".v c #737173",
".z c #738d8b",
"#5 c #7b757b",
".# c #7b797b",
".h c #7b7d7b",
".Z c #7ba1a4",
"#F c #837d73",
"#A c #837d7b",
"#k c #837d83",
".y c #838183",
"#D c #838583",
".D c #83a5bd",
"#u c #83aed5",
"#n c #83daee",
"#6 c #8b858b",
"#b c #8b8d8b",
"#z c #8bb2c5",
"#y c #8bbecd",
".9 c #8bcede",
"#l c #8bd6c5",
"#Z c #948d94",
".o c #949194",
".J c #949594",
"#x c #94becd",
".C c #94c2d5",
".6 c #94d2cd",
".E c #9c9d9c",
"#o c #9cbacd",
".A c #9cc2cd",
".Q c #9cc2e6",
".K c #9cc6d5",
"#Q c #a49da4",
".0 c #a4a1a4",
"#f c #a4becd",
"#s c #aca1a4",
".M c #aca5ac",
"#0 c #acaaac",
"#g c #acaeac",
"#i c #acd6de",
".B c #acdaee",
"#r c #aceee6",
"#R c #b4b2b4",
"#T c #b4b6b4",
".P c #b4cede",
".F c #bdbabd",
".1 c #bdbebd",
"#c c #c5bec5",
".S c #c5c2c5",
".O c #c5dede",
"#S c #cdcacd",
".L c #cdfaf6",
"#w c #d5ced5",
".G c #d5d2d5",
".I c #d5d6d5",
"#j c #d5eee6",
".T c #d5f6f6",
"#d c #d5faf6",
".s c #dedade",
".r c #dedede",
"#J c #e6dee6",
".t c #e6e2e6",
".H c #e6e6e6",
".5 c #e6eee6",
".N c #e6eeee",
".2 c #e6faff",
".q c #eee6ee",
".V c #eeeade",
".j c #eeeaee",
"#e c #eeeede",
".u c #eeeeee",
"#t c #eef6f6",
".p c #f6f2f6",
"#h c #f6f6f6",
".U c #fff2ee",
".3 c #fff6f6",
"#E c #fff6ff",
".k c #fffaff",
".i c #ffffff",
/* pixels */
"QtQtQtQtQtQtQtQtQtQtQtQtQtQtQtQtQtQtQtQtQtQt",
"QtQtQtQtQt.#.a.b.c.c.d.d.e.f.gQtQtQtQtQtQtQt",
"QtQtQtQt.h.i.i.i.i.i.i.i.i.i.g.gQtQtQtQtQtQt",
"QtQtQtQt.a.i.i.i.i.i.i.i.i.i.g.j.gQtQtQtQtQt",
"QtQtQtQt.b.k.k.g.l.m.n.o.i.i.g.p.j.gQtQtQtQt",
"QtQtQtQt.d.q.r.r.s.t.j.k.i.i.g.k.u.t.gQtQtQt",
"QtQtQt.g.g.g.g.g.v.w.x.y.k.i.g.g.g.g.g.gQtQt",
"QtQt.g.z.A.B.C.D.g.E.F.G.H.k.i.i.I.F.J.gQtQt",
"Qt.g.K.L.M.N.O.P.Q.g.d.l.R.m.n.o.i.H.S.gQtQt",
"Qt.g.T.U.#.V.W.X.Y.Z.g.0.1.H.k.i.k.q.1.gQtQt",
"Qt.g.2.3.4.5.6.7.8.9.g#.###a.x#b.i.H#c.gQtQt",
"Qt.g#d.N.a#e.Y.X.W#f.g.J#g.r#h.i.k.H.1.gQtQt",
"Qt.g#i#j#k.5#l#m#n#o.g#p###q###b.i.H#c.gQtQt",
"QtQt.g#r#s#t.W.X#u.g#v.o.M#w.j.k.k.q.1.gQtQt",
"QtQtQt.g#x#y.K#z.g#A#B#C.d#q###D#E.t#c.gQtQt",
"QtQtQtQt.g.g.g.g.0#F#G#H#I.0.F.s.H#J.F.gQtQt",
"QtQtQtQt#K.p.q.s.s#L#M#N#O#P#Q#R#S#S#T.gQtQt",
"QtQtQtQt.R.i.j.t.s.s#U#V#W#X#Y#Z.E#0.E.gQtQt",
"QtQtQtQt.g#J#w.S#c.1.F#1#V#2#3#4#5.h#6.gQtQt",
"QtQtQtQtQt.g.g.g.g.g#7.g#8#V#W#9.x#7.gQtQtQt",
"QtQtQtQtQtQtQtQtQtQtQtQtQta.a#aaQtQtQtQtQtQt",
"QtQtQtQtQtQtQtQtQtQtQtQtQtQtQtQtQtQtQtQtQtQt"
};
