/* XPM */
static char *linguist[] = {
/* width height ncolors chars_per_pixel */
"22 22 215 2",
/* colors */
"Qt c None",
"aC c #000000",
"al c #001429",
"au c #002052",
".R c #00205a",
"at c #00244a",
"as c #002452",
".d c #00245a",
".k c #002462",
"a. c #00285a",
".j c #002862",
".e c #002c62",
".f c #00306a",
".u c #003873",
"aG c #00388b",
"aO c #003c8b",
"aU c #003c94",
"a1 c #003c9c",
"#T c #00407b",
"aN c #004083",
"aD c #00408b",
"aE c #00448b",
"aZ c #004494",
"aF c #004894",
"a0 c #00489c",
"a6 c #0048a4",
"aT c #004ca4",
"am c #081c31",
".x c #08306a",
"#w c #083873",
"#v c #083c73",
"#V c #083c83",
"aY c #084894",
"ak c #102039",
"an c #102c4a",
"#9 c #103c73",
"a5 c #10489c",
"aj c #181420",
"ao c #183452",
".l c #184073",
"ab c #18488b",
"#J c #185083",
"ai c #202439",
"ah c #202441",
"ap c #203852",
".c c #20447b",
"#W c #20487b",
".D c #293c7b",
"bc c #311829",
"bb c #311c29",
".y c #31386a",
".L c #315d94",
"av c #395062",
"ba c #412031",
".Q c #415d94",
".I c #4171a4",
"ac c #4a79a4",
"aq c #523c4a",
"#1 c #524873",
"#x c #5281b4",
"#S c #5a4873",
"ax c #5a6973",
"ay c #5a697b",
"az c #627d8b",
".t c #6281ac",
".5 c #6a71a4",
".6 c #6a75ac",
"b# c #732829",
"aw c #737583",
"aX c #7b1800",
"#I c #7b618b",
".U c #7b89c5",
".4 c #7b8dc5",
"aP c #7b99c5",
"aH c #7b9dc5",
"af c #830800",
"bn c #832800",
".T c #8381b4",
"a2 c #83a5cd",
"aV c #83aad5",
"#2 c #8b0c00",
"bl c #8b3000",
"#8 c #8b4462",
".p c #8b618b",
".S c #8b89bd",
"bm c #943400",
"bk c #943800",
".m c #944462",
"aA c #94595a",
"#O c #94a5c5",
"#K c #9c0c00",
"bj c #9c3800",
"bi c #9c3c00",
"#E c #9cbad5",
"ar c #a41008",
"bh c #a43c00",
"#X c #a4bacd",
"#3 c #ac1000",
"ag c #ac1400",
".E c #ac2c41",
".M c #ac445a",
"#L c #b41400",
".i c #b4506a",
"aB c #bd0800",
"#B c #bd697b",
"#R c #c52c39",
".z c #c5384a",
"#0 c #c54c62",
".w c #c55562",
"#u c #c5a5bd",
".H c #c5c2d5",
".P c #c5cee6",
".b c #c5d2e6",
"#h c #cd0000",
"aS c #cd0400",
"aM c #cd0800",
"#M c #cd1400",
"a8 c #cd2800",
"b. c #cd2c00",
"aa c #cd5562",
".V c #cd798b",
"#k c #cd9db4",
"a# c #cdaec5",
".v c #cdb2c5",
".C c #cdd2e6",
".Z c #d50000",
"#N c #d51400",
"#4 c #d51800",
"a9 c #d52c00",
".q c #d52c31",
"bg c #d54c00",
"#U c #d5596a",
"#D c #d55d62",
".K c #d55d6a",
".g c #d5b2cd",
".h c #de0000",
"#d c #de0c18",
"#c c #de1831",
"#b c #de2031",
"#a c #de2039",
"#e c #de2439",
"## c #de2839",
"#f c #de2841",
"#7 c #de2c31",
"a4 c #de3400",
"#A c #de3439",
"#H c #de444a",
"be c #de5000",
"#i c #dea5bd",
"#j c #dea5c5",
".J c #deb6cd",
"ad c #deced5",
".3 c #dee6f6",
".9 c #e62839",
"#. c #e62841",
".7 c #e62c39",
"#g c #e62c41",
".F c #e63031",
".N c #e63039",
"a3 c #e63400",
".n c #e63439",
"bf c #e65000",
"bd c #e65500",
".0 c #e66562",
"aL c #e6857b",
"#C c #e6c6d5",
".s c #e6d2de",
"#y c #e6e6ee",
"#F c #e6eef6",
".8 c #ee2c41",
"#Q c #ee4041",
"#Z c #ee4441",
"#q c #ee4c52",
"a7 c #ee8983",
"aW c #ee8d83",
"#l c #eeb6cd",
"aQ c #eeeeee",
".# c #f6404a",
".A c #f6484a",
".r c #f65552",
".o c #f67173",
"#6 c #f68183",
"#s c #f6858b",
"ae c #f68983",
".O c #f6999c",
".1 c #f6b2bd",
"#P c #f6babd",
"#t c #f6bacd",
"br c #f6c200",
"bu c #f6c600",
"#5 c #f6e2ee",
"aJ c #f6f2f6",
"aR c #f6faff",
"#G c #ff817b",
"#p c #ff919c",
"#o c #ff959c",
"#z c #ff999c",
"#Y c #ffa1a4",
".G c #ffaaac",
"#n c #ffaeb4",
".W c #ffb6b4",
".a c #ffbebd",
".Y c #ffbecd",
"bq c #ffc600",
"bp c #ffca00",
"bo c #ffce00",
"#r c #ffced5",
"bs c #ffd200",
".B c #ffd2d5",
"#m c #ffd2de",
"bt c #ffd600",
".2 c #ffdade",
"aI c #fff6f6",
".X c #fffaff",
"aK c #ffffff",
/* pixels */
"Qt.#.a.b.c.d.e.f.g.h.i.j.j.k.l.m.n.oQtQtQtQt",
"Qt.p.q.r.s.t.e.u.v.h.w.x.j.y.z.A.B.CQtQtQtQt",
"Qt.j.D.E.F.G.H.I.J.h.K.L.M.N.O.P.Q.RQtQtQtQt",
"Qt.S.T.U.V.r.W.X.Y.Z.0.1.o.2.3.4.5.6QtQtQtQt",
"Qt.7.8.9#.###a#b#c.Z#d#e#f#a#a.9.8#gQtQtQtQt",
"Qt.Z.Z.Z.Z.Z#h.Z#h.Z#h.Z#h.Z#h.Z.Z.ZQtQtQtQt",
"Qt#i#j#k#l#m#n#o#p#h#q#r#n#s#t#u#i#iQtQtQtQt",
"Qt#v#w#x#y#z#A#B#C.h#D#E#F#G#H#I#J#v#K#L#M#N",
"Qt.l#O#P#Q#R#S#T.g.h#U#V#W#X#Y#Z#0#1#2#3#4#M",
"Qt#5#6#7#8#9a.#va#.haaab.d.jacadae#Qafag#M#N",
"QtQtQtQtQtQtQtahaiajakalamamanaoapaqar#3#4#M",
"QtQtQtQtQtQtQtasata.atauavawaxayazaAaB#L#M#N",
"aCaCaCaCaCaCaCaDaEaFaFaGaHaIaJaJaKaLaM#M#4#M",
"aCaCaCaCaCaCaCaDaNaFaEaOaP.XaQaJaRaLaS#N#M#N",
"aCaCaCaCaCaCaCaFaFaTaTaUaVaKaKaKaKaWaM#M#4#M",
"aXaXaXaXaXaXaXaYaZaTa0a1a2aKaKaKaKaWaS#N#M#N",
"a3a4a3a4a3a4a3aYa5a6aTaUaVaKaKaKaKa7aM#M#4#M",
"a8a9a8a9a8a9a8b.b#babbbcbcbcbcbcQtQtQtQtQtQt",
"bdbebdbebdbebdbfbgbhbibjbkblbmbnQtQtQtQtQtQt",
"bobobobobobobobobpbpbqbqbqbqbrbsQtQtQtQtQtQt",
"bsbsbsbsbsbsbsbsbsbsbtbsbtbsbsbsQtQtQtQtQtQt",
"bsbsbsbsbsbsbsbsbsbsbsbsbsbsbobuQtQtQtQtQtQt"
};
