/* XPM */
static char *previous[] = {
/* width height ncolors chars_per_pixel */
"22 22 112 2",
/* colors */
"Qt c None",
"#Q c #0028ff",
"#t c #0828ee",
"#u c #0828f6",
"#I c #0830ff",
"#r c #1028e6",
"#q c #1028ff",
"#v c #1030ff",
"#x c #1038ff",
"#p c #1040ff",
"#s c #1830e6",
"#f c #1838e6",
"#w c #1840ff",
"#S c #2038e6",
"#a c #2040e6",
"#m c #2050ff",
"#y c #2940de",
".7 c #2940e6",
"#e c #2950ff",
"## c #2959ff",
"#o c #3140d5",
"#J c #3161ff",
"#T c #3950de",
"#i c #3961ff",
".6 c #3969ff",
"#G c #4150c5",
".Z c #4150d5",
"#P c #4161e6",
"#A c #4169ff",
".P c #4171ee",
"#j c #4171ff",
"#M c #4a59cd",
"#h c #4a71ff",
"#k c #4a79ff",
"#g c #5261c5",
"#l c #5285ff",
"#F c #5a69bd",
"#O c #5a69c5",
"#d c #5a8dff",
"#N c #6285ee",
"#b c #628dff",
"#. c #6295ff",
".Y c #629dff",
"#B c #6a71b4",
".Q c #6a8dde",
"#K c #6a95ee",
".O c #6a9dff",
".I c #738dd5",
".x c #7395e6",
".r c #739de6",
".E c #739df6",
".4 c #73a5ff",
"#H c #7b85b4",
"#E c #7b85c5",
".y c #7b8dc5",
".K c #7b8dcd",
".b c #7b8dd5",
".R c #7b95d5",
".S c #7b9dd5",
".N c #7baeff",
".D c #7bb6ff",
".0 c #8395bd",
".t c #8395c5",
".T c #83a5ee",
".3 c #83aeff",
".C c #83b6ff",
".M c #83beff",
".n c #8b95bd",
".j c #8b9dc5",
".a c #8ba5e6",
".m c #8bb6ee",
".w c #8bbeff",
"#D c #9495ac",
".d c #9495b4",
".# c #949dbd",
".B c #94c6ff",
"#c c #94ceff",
".H c #9c9dbd",
"#z c #9ca5b4",
".e c #9cb6f6",
".U c #9cbef6",
".v c #9cceff",
".J c #a4a5bd",
".q c #a4d6ff",
"#n c #acaeac",
"#L c #acaeb4",
"#C c #acaebd",
"#R c #acaec5",
".g c #acbeee",
".V c #acdeff",
".9 c #ace6ff",
".c c #b4b6bd",
".h c #b4b6c5",
".G c #b4bebd",
".s c #b4bec5",
".5 c #b4deff",
".i c #bdbebd",
".F c #bdbec5",
".k c #bdcef6",
".1 c #bdd6ff",
".X c #bde6ff",
".A c #c5e6ff",
".L c #c5eeff",
".u c #cddef6",
".W c #cde6ff",
".o c #d5e6ff",
".p c #d5ffff",
".z c #dee6ff",
".l c #deffff",
".8 c #eeffff",
".2 c #f6ffff",
".f c #ffffff",
/* pixels */
"QtQtQtQtQtQtQtQtQtQtQtQtQtQtQtQtQtQtQtQtQtQt",
"QtQtQtQtQtQtQtQtQtQtQtQtQtQtQtQtQtQtQtQtQtQt",
"QtQtQtQtQtQtQt.#.a.b.cQtQtQtQtQtQtQtQtQtQtQt",
"QtQtQtQtQtQt.d.e.f.g.hQtQtQtQtQtQtQtQtQtQtQt",
"QtQtQtQt.i.j.k.f.l.m.cQtQtQtQtQtQtQtQtQtQtQt",
"QtQtQt.i.n.o.f.p.q.r.sQtQtQtQtQtQtQtQtQtQtQt",
"QtQt.i.t.u.f.p.v.w.x.cQtQtQtQtQtQtQtQtQtQtQt",
"Qt.c.y.z.f.A.B.C.D.E.d.i.F.G.h.H.t.y.I.x.I.J",
".F.K.o.f.L.M.N.N.N.O.P.Q.R.S.T.U.V.W.L.X.Y.Z",
".0.1.2.L.B.3.N.4.4.4.N.q.5.X.A.5.V.v.w.N.6.7",
".T.8.9.w.N.N.4.4.4.4.N.N.3.N.4.4.4.O.O#.###a",
"#b#c.C.3.N.4.4.4.4.4.4.4.O.O.O.O.O#.#.#d#e#f",
"#g#e#d.O.4.O.O.O.4.O#h#i.6#j#k#l#l#d#l#l#m.7",
"#n#o#p#h#..O.O.O.4#.#q#r#s#t#u#v#w#w#m#e#x#y",
"Qt#z#y#w#A#b#..O.O#b#B#z#C#D#E#F#G#o#y.7#y#H",
"QtQt.c.Z#I#J#l#.#.#K.cQtQtQtQtQtQt.i.c.c.cQt",
"QtQtQt#L#M#I#J#d#d#N#CQtQtQtQtQtQtQtQtQtQtQt",
"QtQtQtQt.G#O#I###j#P#CQtQtQtQtQtQtQtQtQtQtQt",
"QtQtQtQtQt.i#B#Q#p.7#RQtQtQtQtQtQtQtQtQtQtQt",
"QtQtQtQtQtQt.i#H#S#T.cQtQtQtQtQtQtQtQtQtQtQt",
"QtQtQtQtQtQtQtQtQtQtQtQtQtQtQtQtQtQtQtQtQtQt",
"QtQtQtQtQtQtQtQtQtQtQtQtQtQtQtQtQtQtQtQtQtQt"
};
