/* XPM */
static char *qt[] = {
/* width height ncolors chars_per_pixel */
"22 22 2 1",
/* colors */
". c None",
"# c #a4c610",
/* pixels */
"........######........",
".....###########......",
"....##############....",
"...################...",
"..######......######..",
"..#####........#####..",
".#####.......#..#####.",
".####.......###..####.",
"####.......#####..####",
"####......#####...####",
"####....#######...####",
"####....######....####",
"####...########...####",
".####.##########..####",
".####..####.#########.",
".#####..##...########.",
"..#####.......#######.",
"..######......######..",
"...###################",
"....##################",
"......###########.###.",
"........######.....#.."
};
