/* XPM */
static char *zoomin[] = {
/* width height ncolors chars_per_pixel */
"22 22 125 2",
/* colors */
"Qt c None",
".# c #000000",
".9 c #003c5a",
".X c #00446a",
".L c #00486a",
".Z c #00508b",
".N c #005d9c",
"#r c #082c41",
"#h c #083452",
".V c #083c52",
".W c #084062",
".Y c #085083",
".M c #08558b",
".1 c #08598b",
".0 c #085994",
".P c #086da4",
"#g c #103852",
".K c #10486a",
"#N c #105083",
".2 c #10618b",
".Q c #106d9c",
".O c #1075ac",
"#O c #1828bd",
"#4 c #1828cd",
"#Y c #1830c5",
"#q c #18384a",
"#5 c #1840b4",
"#6 c #1844bd",
"#W c #1879d5",
"#1 c #1879de",
"#U c #187dd5",
"#R c #187dde",
"#3 c #202ccd",
".D c #2081b4",
"#S c #208de6",
"#X c #2091e6",
".8 c #2995b4",
"#Q c #313c73",
"#. c #31a5c5",
".C c #31bee6",
"#0 c #393c94",
".t c #3991b4",
"#i c #399dbd",
"#H c #41386a",
".E c #4199bd",
"## c #41aecd",
"#G c #4a3c6a",
"#Z c #4a3c73",
"#P c #4a406a",
"#V c #4a50ac",
"#2 c #4a59a4",
"#s c #4a91a4",
".m c #4a9dbd",
"#j c #4aa1bd",
".B c #4abade",
"#F c #52445a",
"#w c #525052",
"#T c #525db4",
"#z c #5a8594",
"#A c #5a899c",
"#f c #5a9db4",
".7 c #5aa5bd",
"#a c #5ab2cd",
".A c #5ab6d5",
".r c #5ac6e6",
".s c #5aceee",
"#o c #6291a4",
"#B c #6295a4",
".5 c #6299a4",
"#p c #6299ac",
"#t c #629db4",
".6 c #62a1b4",
".u c #62aac5",
"#y c #6a899c",
"#n c #6a8d9c",
"#e c #6a99ac",
".U c #6aa1b4",
".J c #6aaabd",
".n c #6aaac5",
"#k c #6aaec5",
"#J c #738d94",
"#d c #7395a4",
"#I c #7b8d9c",
"#x c #7b919c",
"#m c #7b959c",
"#K c #7b99a4",
"#C c #7b9dac",
"#u c #7baab4",
".q c #7bc6de",
".z c #83bacd",
"#b c #83c2d5",
".k c #83d6f6",
".l c #83daf6",
"#E c #8b8183",
".4 c #8ba5ac",
".T c #8baab4",
"#l c #8bbacd",
".R c #8bd2ee",
".G c #8bdaf6",
"#D c #94aeb4",
".I c #94b6c5",
".p c #94c6d5",
".F c #94def6",
"#v c #9cbac5",
".j c #9cd6e6",
".y c #a4c2cd",
"#L c #aca1a4",
"#c c #accede",
".e c #ace2f6",
".x c #ace6f6",
".f c #ace6ff",
".3 c #b4daee",
".S c #b4deee",
"#M c #bdbabd",
".i c #bddae6",
".g c #bdeaf6",
".w c #bdeaff",
".d c #c5e6f6",
".H c #c5eaff",
".v c #c5eeff",
".a c #d5f2ff",
".h c #def2ff",
".o c #def6ff",
".b c #e6f6ff",
".c c #eefaff",
/* pixels */
"QtQtQtQtQtQtQtQtQtQtQtQtQtQtQtQtQtQtQtQtQtQt",
"QtQtQtQtQt.#.#.#.#QtQtQtQtQtQtQtQtQtQtQtQtQt",
"QtQtQt.#.#.a.b.b.c.#.#QtQtQtQtQtQtQtQtQtQtQt",
"QtQt.#.d.e.f.g.a.h.b.b.#QtQtQtQtQtQtQtQtQtQt",
"Qt.#.i.j.k.l.m.n.a.a.a.o.#QtQtQtQtQtQtQtQtQt",
"Qt.#.p.q.r.s.t.u.v.w.x.v.#QtQtQtQtQtQtQtQtQt",
".#.y.z.A.B.C.D.E.f.F.G.F.H.#QtQtQtQtQtQtQtQt",
".#.I.J.K.L.M.N.O.O.P.Q.R.S.#QtQtQtQtQtQtQtQt",
".#.T.U.V.W.X.Y.Z.0.1.2.q.3.#QtQtQtQtQtQtQtQt",
".#.4.5.6.7.8.9.X#.###a#b#c.#QtQtQtQtQtQtQtQt",
"Qt.##d#e.U#f#g#h#i#j#k#l.#QtQtQtQtQtQtQtQtQt",
"Qt.##m#n#o#p#q#r#s#t#u#v.##wQtQtQtQtQtQtQtQt",
"QtQt.##x#y#z#A#A#B#C#D.##E#F#G#HQtQtQtQtQtQt",
"QtQtQt.#.##I#J#x#K.#.##L#M#N#O#P#HQtQtQtQtQt",
"QtQtQtQtQt.#.#.#.#QtQtQt#Q#R#S#O#P#HQtQtQtQt",
"QtQtQtQtQtQtQtQtQtQtQtQtQt#T#U#S#O#H#HQtQtQt",
"QtQtQtQtQtQtQtQtQtQtQtQtQtQt#V#W#X#Y#Z#HQtQt",
"QtQtQtQtQtQtQtQtQtQtQtQtQtQtQt#0#1#S#O#H#HQt",
"QtQtQtQtQtQtQtQtQtQtQtQtQtQtQtQt#2#W#X#Y#3#H",
"QtQtQtQtQtQtQtQtQtQtQtQtQtQtQtQtQt#0#1#S#4#H",
"QtQtQtQtQtQtQtQtQtQtQtQtQtQtQtQtQtQt#2#5#6Qt",
"QtQtQtQtQtQtQtQtQtQtQtQtQtQtQtQtQtQtQtQtQtQt"
};
