/* XPM */
static char * check_danger_xpm[] = {
"17 13 4 1",
" 	c None",
".	c #FFFFFF",
"+	c #FC0204",
"@	c #000000",
".................",
".......++@.......",
".......++@.......",
".......++@.......",
".......++@.......",
".......++@.......",
".......++@.......",
".................",
".................",
".......++@.......",
".......++@.......",
".................",
"................."};
