/* XPM */
static char * check_off_xpm[] = {
"17 13 4 1",
" 	c None",
".	c #FFFFFF",
"+	c #D8D100",
"@	c #000000",
".................",
".................",
"......++++@......",
".....++@.++@.....",
".....++@.++@.....",
"........++@......",
".......++@.......",
".......++@.......",
".................",
".......++@.......",
".......++@.......",
".................",
"................."};
