/* XPM */
static char *icon[] = {
/* width height ncolors chars_per_pixel */
"32 32 12 1",
/* colors */
"  c black",
". c navy",
"X c #008080",
"o c #800000",
"O c red",
"+ c #800080",
"@ c #808000",
"# c yellow",
"$ c #808080",
"% c #c0c0c0",
"& c white",
"* c None",
/* pixels */
"*OO%%%X....$%OO$.....X$OO$$*****",
"*$$$%%$$X..$%OO$....++$$%%%*****",
"*$$OO$%$$..$%OO$...++$O%%%%*****",
"*...+oO%%%$$%OO$X$$O$%%$X..*****",
"*$$$$$$$%%%%%OO$%$$%%%%$$$$*****",
"*$$$$$$$$%%%%OO$%%$%%%$$$$$*****",
"*OOOOOOOOOOOOOOOOOOOOOOOOOO*****",
"*OOOOOOOOOOOOOOOOOOOOOOOOOO*****",
"*OOOOOOOOOOOOOOOOOOOOOOOOOO*****",
"*%%%%%%%%%%%%OOO&%%%%%%%%%%*****",
"*XXX$$&%%O$%%OO$%%&%$$$$XXoooOOo",
"*..X$%%%$+$$%OO$$%%%$$$$$.oooOOo",
"*.X%%%OO+$X$%OO$.XX%%%O$$$oooOOo",
"*%%%$O$....$%OO$X...X$%%$OoooOOo",
"*&&%OO$....X$oo+....XX$$$+oooOOo",
"**********.         .....+oooOOo",
"**********........X$$$$$$$oooOOo",
"          .......X$%%%%%%$OOOOOo",
"          .XXXXX.$%&&&&&&%OOOOOo",
"          ...XXX.$%&&&&&&%OOOOOo",
"          .XXXXX.$%&&&&&&%OOOOOo",
"          .XXXXX.$%&&&&&&%OOOOOo",
"oooooooooo.XXXXX.$%&&&&&&%OOOOOo",
"OOOOOOOOOOXXXXXX.$%&&&&&&%OOOOOo",
"OOOOOOOOOO+......$$%%%%&&%OOOOOo",
"OOOOOOOOOOOooo          ********",
"OOOOOOOOOOOO@ooooooooooo********",
"@@@@@@@@@@@@@@@@@@@@@@@@********",
"########################********",
"########################********",
"########################********",
"########################********"
};
