/* XPM */
static char *magick[] = {
/* columns rows colors chars-per-pixel */
"22 22 4 1",
"  c Gray100",
". c #848284",
"X c None",
"o c Gray0",
/* pixels */
"........XX.XX........X",
".      . X. X.      . ",
". XXXXX. X. X. XXXXX. ",
". XXXXX. X. X. XXXXX. ",
". XXXXX. X. X. XXXXX. ",
". XXXXX. X. X. XXXXX. ",
". XXXXX. X. X. XXXXX. ",
". XXXXX. X. X. XXXXX. ",
". XXXXX. .. .. XXXXX. ",
". XXXX.. .  .. .XXXX. ",
". XXX.....  .....XXX. ",
". XXXX.  .  .  .  XX. ",
". XXXXX  .  .  X XXX. ",
". XXXXX. X  X  XXXXX. ",
". XXXXX. X. X. XXXXX. ",
". XXXXX. X. X. XXXXX. ",
". XXXXX. X. X. XXXXX. ",
". XXXXX. X. X. XXXXX. ",
". XXXXX. X. X. XXXXX. ",
". XXXXX. X. X. XXXXX. ",
"........ X. X........ ",
"X        XX XX        "
};
