/* XPM */
static char *magick[] = {
/* columns rows colors chars-per-pixel */
"22 22 4 1",
"  c Gray100",
". c #848284",
"X c None",
"o c Gray0",
/* pixels */
".....................X",
".                   . ",
". XXXXXXXXXXXXXXXXXX. ",
". XXXXXXXXXXXXXXXXXX. ",
". XXXXXXXXXXXXXXXXXX. ",
". XXXXXXXX.XXXXXXXXX. ",
". XXXXXXX...XXXXXXXX. ",
"...........  ........ ",
"X         .           ",
"XXXXXXXX.....XXXXXXXXX",
".........     .......X",
"X                     ",
"XXXXXXXX.....XXXXXXXXX",
"......... .   .......X",
".         .         . ",
". XXXXXXX...XXXXXXXX. ",
". XXXXXXXX.  XXXXXXX. ",
". XXXXXXXXX XXXXXXXX. ",
". XXXXXXXXXXXXXXXXXX. ",
". XXXXXXXXXXXXXXXXXX. ",
"..................... ",
"X                     "
};
