/* XPM */
static const char * red_xpm[] = {
"32 32 6 1",
" 	c None",
".	c #EE0928",
"+	c #EF0928",
"@	c #EE0A29",
"#	c #EE0B2A",
"$	c #ED0C2B",
"........................+.......",
".+.++++++++++++++++++++++++++++.",
".++++++++++++++++++++++++++++++.",
".++++++++++++++++++++++++++++++.",
".++++++++++++++++++++++++++++++.",
".++++++++++++++++++++++++++++++.",
".++++++++++++++++++++++++++++++.",
".++++++++.+++++++++++++++++++++.",
".++++++++++++++++++++++++++++++.",
"+++++++++++++++++++++++++++++++.",
".++++++++++++++++++++++++++++++.",
".++++++++++++++++++++++++++++++.",
".++++++++++++++++++++++++++++++.",
".++++++.+++++++++++++++++++++++.",
".++++++++++++++++++++++++++++++.",
".++++++++++++++++++++++++++++++.",
".++++++++++++++++++++++++++++++.",
".++++++++++++++++++++++++++++++.",
".++++++++++++++++.+++++++++++++.",
".++++++++++++++++++++++++++++++.",
".++++++++++++++++++++++++++++++.",
".++++++++++++++++++++++++++++++.",
".++++++++++++++++++++++++++++++@",
".+++++++++++++++++++++++++++++.#",
".+++++++++++++++++++++++++.+++.$",
".+++++++++++++++++++++++++++++#$",
".+++++++++++++++++++++++++++++.#",
".+++++++++++++++++++++++++++++.#",
".++++++++.+++++++++++++++++++++@",
".++++++.+++++++++++++++++++++++.",
".++++++++++++++++++++++++++++++.",
"..........+.............+......."};
