/* XPM */
static char *magick[] = {
/* columns rows colors chars-per-pixel */
"22 22 16 1",
"  c #f4f4f4",
". c #00007b",
"X c #dadada",
"o c Gray32",
"O c #053de3",
"+ c Red",
"@ c Gray0",
"# c Gray100",
"$ c None",
"% c Gray0",
"& c Gray0",
"* c Gray0",
"= c Gray0",
"- c Gray0",
"; c Gray0",
": c Gray0",
/* pixels */
"$$$$$$$$$$$$$$$$$$$$$$",
"$$$$$$$$$$$$$$$$$$$$$$",
"$$$$$$$$$$$$$$$$$$$$$$",
"$$$$$$$$$$$$$$$$$$$$$$",
"$@@@@@@@@@@@@@@@@@@@@$",
"@@oooooooooooooooooo@@",
"@oo ###.........####X@",
"@o####OOOOOOOOO.####X@",
"@o####O#######O.####X@",
"@o####O#+++++#O.####X@",
"@o####O####+##O.####X@",
"@o####O###+###O.####X@",
"@o####O###+###O.####X@",
"@o####O###+###O.####X@",
"@o####O#######O.####X@",
"@o####OOOOOOOOO#####X@",
"@@XXXXXXXXXXXXXXXXXX@@",
"$@@@@@@@@@@@@@@@@@@@@$",
"$$$$$$$$$$$$$$$$$$$$$$",
"$$$$$$$$$$$$$$$$$$$$$$",
"$$$$$$$$$$$$$$$$$$$$$$",
"$$$$$$$$$$$$$$$$$$$$$$"
};
