/* XPM */
static char *magick[] = {
/* columns rows colors chars-per-pixel */
"22 22 32 1",
"  c #adaad6",
". c #cecfe7",
"X c #5255ad",
"o c #6365b5",
"O c #efeff7",
"+ c #4245a5",
"@ c Gray96",
"# c #31309c",
"$ c #000084",
"% c #00007b",
"& c #dadada",
"* c Gray32",
"= c #053de3",
"- c Red",
"; c Gray100",
": c Gray0",
"> c None",
", c Gray0",
"< c Gray0",
"1 c Gray0",
"2 c Gray0",
"3 c Gray0",
"4 c Gray0",
"5 c Gray0",
"6 c Gray0",
"7 c Gray0",
"8 c Gray0",
"9 c Gray0",
"0 c Gray0",
"q c Gray0",
"w c Gray0",
"e c Gray0",
/* pixels */
">>>>>>>>>>>>>>>>>>>>>>",
">>>>>>>>>>>>>>>>>>>>>>",
">>>>>>>>>>>>>>>>>>>>>>",
">>>>>>>>>>>>>>>>>>>>>>",
">::::::::::::::::::::>",
"::******************::",
":**%%%%%%%%%;;;;;;;;&:",
":*=========%;.o#$#o.&:",
":*=;;;;;;;=%.+X $ X+.:",
":*=;-----;=%oXO;$;OXo:",
":*=;;;;-;;=%# ;;$;; #:",
":*=;;;-;;;=%$O;#$$$$$:",
":*=;;;-;;;=%# ; #;; #:",
":*=;;;-;;;=%oXO;;;OXo:",
":*=;;;;;;;=%.+X @ X+.:",
":*=========;;.o#$#o.&:",
"::&&&&&&&&&&&&&&&&&&::",
">::::::::::::::::::::>",
">>>>>>>>>>>>>>>>>>>>>>",
">>>>>>>>>>>>>>>>>>>>>>",
">>>>>>>>>>>>>>>>>>>>>>",
">>>>>>>>>>>>>>>>>>>>>>"
};
