/* XPM */
static char *magick[] = {
/* columns rows colors chars-per-pixel */
"22 22 128 2",
"   c #797979",
".  c #32110c",
"X  c #ee634a",
"o  c #e2634d",
"O  c #ff7e65",
"+  c #9a301f",
"@  c #9b2d1b",
"#  c #e2634e",
"$  c #80442d",
"%  c #a33d28",
"&  c #371711",
"*  c #601508",
"=  c #e6765d",
"-  c #ff8469",
";  c #8a5339",
":  c #33120c",
">  c #e36851",
",  c #e46f57",
"<  c #3d3d2d",
"1  c #ff8167",
"2  c #ff8166",
"3  c #d47554",
"4  c #999991",
"5  c #ab4f36",
"6  c #5b4130",
"7  c #7b7b7b",
"8  c #e5725a",
"9  c #e36a53",
"0  c #e77c62",
"q  c #ff9a7d",
"w  c #a9a99d",
"e  c #f07156",
"r  c #ce6144",
"t  c #826e52",
"y  c #5c5c45",
"u  c #611609",
"i  c #692313",
"p  c #a03723",
"a  c #6b533e",
"s  c #e2614c",
"d  c #ff8268",
"f  c #583d2d",
"g  c #a8462f",
"h  c #ffa285",
"j  c #c13923",
"k  c #f18063",
"l  c #e3664f",
"z  c #9a2f1d",
"x  c #c33e27",
"c  c #80807e",
"v  c #62180a",
"b  c #ff866b",
"n  c #661e0f",
"m  c #45271d",
"M  c #0e0e0a",
"N  c #705943",
"B  c #482a1f",
"V  c #040403",
"C  c #d98663",
"Z  c #e46e56",
"A  c #9d311e",
"S  c #8b8b87",
"D  c #ff9175",
"F  c #9f3421",
"G  c #f38e6f",
"H  c #c84e34",
"J  c #23231a",
"K  c #717154",
"L  c #ff886d",
"P  c #641a0d",
"I  c #9b2b19",
"U  c #ee664d",
"Y  c #b4b4a5",
"T  c #a5422b",
"R  c #a33d27",
"E  c #371710",
"W  c #320f0a",
"Q  c #753320",
"!  c #7c7c5c",
"~  c #ee644b",
"^  c #ff876c",
"/  c #e88066",
"(  c #babaaa",
")  c #672011",
"_  c #a7452e",
"`  c #ae553b",
"'  c #e5745c",
"]  c #33130d",
"[  c #9b2c1a",
"{  c #e2624c",
"}  c #ff7f65",
"|  c #241210",
" . c #5e1206",
".. c #ee6249",
"X. c #c13822",
"o. c #31100b",
"O. c Gray0",
"+. c None",
"@. c Gray0",
"#. c Gray0",
"$. c Gray0",
"%. c Gray0",
"&. c Gray0",
"*. c Gray0",
"=. c Gray0",
"-. c Gray0",
";. c Gray0",
":. c Gray0",
">. c Gray0",
",. c Gray0",
"<. c Gray0",
"1. c Gray0",
"2. c Gray0",
"3. c Gray0",
"4. c Gray0",
"5. c Gray0",
"6. c Gray0",
"7. c Gray0",
"8. c Gray0",
"9. c Gray0",
"0. c Gray0",
"q. c Gray0",
"w. c Gray0",
"e. c Gray0",
"r. c Gray0",
"t. c Gray0",
"y. c Gray0",
"u. c Gray0",
/* pixels */
"X.X.X.X.X.X.X.X.X.X.X.X.X.X.X.X.X.X.X.X.X.X.",
"................X X X ~ X X X ..............",
"} } } } } } } 2 d - b ^ b - d 2 } } } O O O ",
"{ { { { { { o l 9 Z 8 ' 8 Z 9 l o s { o # o ",
"[ [ [ [ [ [ @ F % g 5 ` 5 g % F @ I [ z + + ",
" . . . . . .u i Q $ ; O.; $ Q i u  . . . . .",
"o.o.o.o.o.. E m f a O.O.O.a f m E . o.o.W W ",
"o.o.o.o.o.. & B 6 N t O.t N 6 B & . o.o.o.o.",
"+.+.+.+.+.+.+.+.+.+.+.O.+.+.+.+.+.+.+.+.+.+.",
"+.+.+.+.+.+.+.+.+.O.O.O.O.O.+.+.+.+.+.+.+.+.",
"          7 c S 4 w Y ( Y w 4 S c 7         ",
"O.O.O.O.O.V M J < y K ! K y < J M V O.O.O.O.",
"+.+.+.+.+.+.+.+.+.O.O.O.O.O.+.+.+.+.+.+.+.+.",
"+.+.+.+.+.+.+.+.+.+.+.O.+.+.+.+.+.+.+.+.+.+.",
"X.X.X.X.X.j x H r 3 C O.C 3 r H x j X.X.X.X.",
"..........X U e k G O.O.O.G k e U X ........",
"} } } } } } 1 L D q h O.h q D L 1 } } O O O ",
"{ { { { { { o > , = 0 / 0 = , > o s { o # # ",
"[ [ [ [ [ [ @ A p R T _ T R p A @ I [ z + + ",
" . . . . . . .* v P n ) n P v *  . . . . . .",
"o.o.o.o.o.o.o.o.. . : ] : . . o.o.o.o.o.o.o.",
"| | | | | | | | | | | | | | | | | | | | | | "
};
