/* XPM */
static char *magick[] = {
/* columns rows colors chars-per-pixel */
"22 22 32 1",
"  c #4c4ca9",
". c #f0f0f8",
"X c #7979bf",
"o c #6a6ab7",
"O c #9696cc",
"+ c #d2d2e9",
"@ c #5b5bb0",
"# c #e1e1f1",
"$ c #a5a5d4",
"% c #3d3da2",
"& c #b4b4db",
"* c #2e2e9a",
"= c #1f1f93",
"- c #10108c",
"; c #c3c3e2",
": c #8888c6",
"> c #080c08",
", c Gray100",
"< c None",
"1 c Gray0",
"2 c Gray0",
"3 c Gray0",
"4 c Gray0",
"5 c Gray0",
"6 c Gray0",
"7 c Gray0",
"8 c Gray0",
"9 c Gray0",
"0 c Gray0",
"q c Gray0",
"w c Gray0",
"e c Gray0",
/* pixels */
"<>>>>>>>>>>>>>>>>>>>><",
">>,,,,,,,,,,,,.,,,,,>>",
">,,,,,,,,,+O:oo,>>>,,>",
">,,,,,,,+@XOO-X,,>,,,>",
">,,,,,,,%.,, -O,,>,,,>",
">,,,,,,$X,,Oo-;,,>,,,>",
">,,,,,,:o,.%&-+,,>,,,>",
">,,,,,,;:,X$:-,,,>,,,>",
">,,,,,,,,#*,:=,,,>,,,>",
">,,,,,,,,o;,  ,,,>,,,>",
">,,,,,,,# ,, @,,,>,,,>",
">,,,,,,, @::*:,,,>,,,>",
">,,,,,,;@;;;-:,,,>,,,>",
">,,,,,, #,,.-&,,,>,,,>",
">,,,,,$:,,,;-;,,,>,,,>",
">,,,,.%.,,,O-&,.,>,,,>",
">,,,,@;,,,,$:::#,>,,,>",
">,;,oX,,,,,,,,,,,>,,,>",
">+--X,,,,,,,,,,,>>>,,>",
">,+#,,,,,,,,,,,,,,,,,>",
">>,,,,,,,,,,,,,,,,,,>>",
"<>>>>>>>>>>>>>>>>>>>><"
};
