/* XPM */
static char *magick[] = {
/* columns rows colors chars-per-pixel */
"22 22 16 1",
"  c #6369ff",
". c #e7e7ff",
"X c #4045d6",
"o c #babeff",
"O c #0000f7",
"+ c #42415a",
"@ c #000018",
"# c #7379ff",
"$ c #00004a",
"% c #000400",
"& c #adaead",
"* c Gray100",
"= c #000084",
"- c None",
"; c Gray0",
": c Gray0",
/* pixels */
"--------------===#===-",
"-------------===#*#===",
"-------------=$@@@@+==",
"-------------=$****.==",
"-------------=$&&&&.==",
"-------------=$&&&&%==",
"-------------=$&&&&%==",
"-------------=$&&&&%==",
"-------------=$*%%%%==",
"-------------=$****.==",
"-------------=$****.==",
"-------------==OXXXX==",
"-------------===#*#===",
"-============-===#===-",
"==@@@@@@@@====--------",
"==$*&&&&ooo===--------",
"=#$*&&&&%*.=#=--------",
"#*$*&&&&%*.=*#--------",
"=#$*&&&&%*.=#=--------",
"==$**%%%%*.===--------",
"==O        ===--------",
"-============---------"
};
