/* XPM */
static char * searchfind_xpm[] = {
"22 22 124 2",
"  	c None",
". 	c #121212",
"+ 	c #979797",
"@ 	c #5B5B5B",
"# 	c #858788",
"$ 	c #AEB6B7",
"% 	c #B9C2C4",
"& 	c #B7BFC0",
"* 	c #999C9C",
"= 	c #3D3D3D",
"- 	c #949999",
"; 	c #D1DBDC",
"> 	c #DBEBEC",
", 	c #DEF3F7",
"' 	c #D7F3F6",
") 	c #CDF0F4",
"! 	c #CDEEF2",
"~ 	c #DEF3F5",
"{ 	c #BAC2C3",
"] 	c #D8E3E2",
"^ 	c #E8F8F9",
"/ 	c #E6F7F9",
"( 	c #DEF5F9",
"_ 	c #C7EEF4",
": 	c #B5E8F0",
"< 	c #A9E3EE",
"[ 	c #B2E7EF",
"} 	c #BDCBCC",
"| 	c #9D9D9D",
"1 	c #8A8A8A",
"2 	c #767676",
"3 	c #D2DDDC",
"4 	c #EAF9F9",
"5 	c #EDFCFB",
"6 	c #ECFBFB",
"7 	c #D8F3F5",
"8 	c #C2ECF1",
"9 	c #AEE6ED",
"0 	c #9EE1E9",
"a 	c #96DEE7",
"b 	c #838383",
"c 	c #6C6C6C",
"d 	c #4A4A4A",
"e 	c #838685",
"f 	c #DBEAEC",
"g 	c #E7F7F8",
"h 	c #D5F1F4",
"i 	c #BBEAF0",
"j 	c #A7E5EC",
"k 	c #93DBE6",
"l 	c #8BD8E4",
"m 	c #91DBE6",
"n 	c #B9BFC0",
"o 	c #8B8B8B",
"p 	c #535353",
"q 	c #494949",
"r 	c #B0B7B6",
"s 	c #DEF4F7",
"t 	c #C7EBF2",
"u 	c #ADE5EC",
"v 	c #99DEE8",
"w 	c #83D6E2",
"x 	c #7BD3E0",
"y 	c #7AD6E1",
"z 	c #BBD5D8",
"A 	c #575757",
"B 	c #4D4D4D",
"C 	c #454545",
"D 	c #373737",
"E 	c #BCC4C5",
"F 	c #D7F2F6",
"G 	c #CBF1F4",
"H 	c #BAEBEF",
"I 	c #98DDE7",
"J 	c #85D8E2",
"K 	c #74D1DF",
"L 	c #68CEDD",
"M 	c #69D0DC",
"N 	c #89DAE4",
"O 	c #B9E0E4",
"P 	c #484848",
"Q 	c #B5BDBE",
"R 	c #D2F1F5",
"S 	c #A6E4EB",
"T 	c #99DCE8",
"U 	c #76D1DF",
"V 	c #64D1DB",
"W 	c #5ACED9",
"X 	c #5FCDDA",
"Y 	c #87D8E4",
"Z 	c #BDDADE",
"` 	c #8A8D8C",
" .	c #D3EFF4",
"..	c #9CDFE9",
"+.	c #82D9E1",
"@.	c #55CDD8",
"#.	c #50CAD9",
"$.	c #6BD3DC",
"%.	c #B7C3C4",
"&.	c #CBE2E6",
"*.	c #AFE7EE",
"=.	c #86D9E3",
"-.	c #77D2E0",
";.	c #5CCDDB",
">.	c #83DAE2",
",.	c #A9AEAE",
"'.	c #67CFDC",
").	c #70D1DD",
"!.	c #86DBE3",
"~.	c #C5D4D6",
"{.	c #AFB4B4",
"].	c #9DE0E8",
"^.	c #C5D2D2",
"/.	c #8D8D8D",
"(.	c #0CFDFA",
"_.	c #A4AAAB",
":.	c #CED7D9",
"<.	c #C1E1E4",
"[.	c #BCC2C3",
"}.	c #3F3F40",
"|.	c #0AE1DF",
"1.	c #06AFB1",
"2.	c #404041",
"3.	c #707071",
"          . . . . .                 + @     ",
"      . . # $ % & * . .             @ =   + ",
"    . - ; > , ' ) ! ~ { .                 @ ",
"  . - ] ^ / ( _ : < [ ~ } .       | 1 2     ",
"  . 3 4 5 6 7 8 9 0 a [ ~ .     | b c @ d   ",
". e f / 6 g h i j k l m [ n .   o 2 @ p q   ",
". r s ( 7 h t u v w x y m z .   2 A B C D   ",
". E F G 8 H u I J K L M N O .     d P D     ",
". Q R i 9 S T J U V W X Y Z .               ",
". `  .[ ..k +.K V @.#.$.[ %..               ",
"  . &.*.k =.-.L W #.;.>.~ .                 ",
"  . ,.~ [ N -.'.X ).!.~ ~..                 ",
"    . {.~ [ ].N Y [ ~ ^.. /.(.              ",
"      . . _.:.<.Z [.. . }.|./..             ",
"          . . . . .     1.2.3./..           ",
"  + @                     . 2.3./..         ",
"  @ =   + @                 . 2.3./..       ",
"        @ =                   . 2.3./..     ",
"| 1 2                           . 2.3./..   ",
"b c @ d   + @                     . 2.3..   ",
"2 @ p q   @ =                       . .     ",
"A B C D                                     "};
