/* XPM */
static char *magick[] = {
/* columns rows colors chars-per-pixel */
"22 22 16 1",
"  c #adaad6",
". c #cecfe7",
"X c #5255ad",
"o c #6365b5",
"O c #efeff7",
"+ c #4245a5",
"@ c Gray96",
"# c #31309c",
"$ c #000084",
"% c #dadada",
"& c Gray32",
"* c Gray0",
"= c Gray100",
"- c None",
"; c Gray0",
": c Gray0",
/* pixels */
"----------------------",
"----------------------",
"----------------------",
"----------------------",
"-********************-",
"**&&&&&&&&&&&&&&&&&&**",
"*&&=================%*",
"*&======.o#$#o.=====%*",
"*&=====.+X $ X+.====%*",
"*&=====oXO=$=OXo====%*",
"*&=====# ==$== #====%*",
"*&=====$O=#$$$$$====%*",
"*&=====# = #== #====%*",
"*&=====oXO===OXo====%*",
"*&=====.+X @ X+.====%*",
"*&======.o#$#o.=====%*",
"**%%%%%%%%%%%%%%%%%%**",
"-********************-",
"----------------------",
"----------------------",
"----------------------",
"----------------------"
};
