/* XPM */
static char *magick[] = {
/* columns rows colors chars-per-pixel */
"22 22 256 2",
"   c Gray100",
".  c Gray16",
"X  c #313131",
"o  c #393939",
"O  c Gray26",
"+  c Gray29",
"@  c Gray32",
"#  c #5a5a5a",
"$  c Gray61",
"%  c #a5a5a5",
"&  c Gray68",
"*  c Gray71",
"=  c Gray74",
"-  c #c6c6c6",
";  c #cecece",
":  c #e7e7e7",
">  c Gray97",
",  c #7b846b",
"<  c #a5ad9c",
"1  c #949c8c",
"2  c #293121",
"3  c #dee7d6",
"4  c #e7efe7",
"5  c #eff7ef",
"6  c #f7fff7",
"7  c #c6cec6",
"8  c #ced6ce",
"9  c #d6ded6",
"0  c #dee7de",
"q  c #b5bdb5",
"w  c #a5ada5",
"e  c #adb5ad",
"r  c #bdc6bd",
"t  c #8c948c",
"y  c #949c94",
"u  c #9ca59c",
"i  c #848c84",
"p  c #737b73",
"a  c #e7f7e7",
"s  c #efffef",
"d  c #6b736b",
"f  c #7b847b",
"g  c #d6e7d6",
"h  c #deefde",
"j  c #636b63",
"k  c #c6d6c6",
"l  c #525a52",
"z  c #5a635a",
"x  c #4a524a",
"c  c #424a42",
"v  c #394239",
"b  c #313931",
"n  c #293129",
"m  c #b5c6bd",
"M  c #94a59c",
"N  c #e7f7ef",
"B  c #ceded6",
"V  c #c6d6ce",
"C  c #adbdb5",
"Z  c #a5b5ad",
"A  c #deefe7",
"S  c #bdcec6",
"D  c #d6dede",
"F  c #dee7e7",
"G  c #a5adad",
"H  c #adb5b5",
"J  c #8c9494",
"K  c #949c9c",
"L  c #737b7b",
"P  c #636b6b",
"I  c #5a6363",
"U  c #4a5252",
"Y  c #424a4a",
"T  c #394242",
"R  c #313939",
"E  c #eff7ff",
"W  c #8c949c",
"Q  c #6b737b",
"!  c #6b7384",
"~  c #4a526b",
"^  c #424a63",
"/  c #b5bdef",
"(  c #f7f7ff",
")  c #b5b5bd",
"_  c #a5a5ad",
"`  c #9c9ca5",
"'  c #cecede",
"]  c #a5a5b5",
"[  c #e7e7ff",
"{  c #9c9cad",
"}  c #8c8c9c",
"|  c #9494a5",
" . c #848494",
".. c #7b7b8c",
"X. c #a5a5bd",
"o. c #9c9cb5",
"O. c #d6d6ff",
"+. c #9c9cbd",
"@. c #73738c",
"#. c #9494b5",
"$. c #6b6b84",
"%. c #63637b",
"&. c #5a5a73",
"*. c #adadde",
"=. c #c6c6ff",
"-. c #52526b",
";. c #8c8cbd",
":. c #bdbdff",
">. c #63638c",
",. c #8c8cc6",
"<. c #7373a5",
"1. c #393952",
"2. c #9c9cef",
"3. c #8c8cde",
"4. c #6b6bad",
"5. c #42426b",
"6. c #5a5a94",
"7. c #7373bd",
"8. c #6363a5",
"9. c #52528c",
"0. c #393963",
"q. c #8484f7",
"w. c #5a5ab5",
"e. c #39397b",
"r. c #181839",
"t. c #5a5ad6",
"y. c #6363ff",
"u. c #31318c",
"i. c #181852",
"p. c #2929c6",
"a. c #18187b",
"s. c #10105a",
"d. c #080831",
"f. c #2121ce",
"g. c #2121ef",
"h. c #1818ff",
"j. c #000021",
"k. c #000031",
"l. c #00006b",
"z. c #00007b",
"x. c #0000b5",
"c. c #0000de",
"v. c Blue",
"b. c #5a52ff",
"n. c #1810ff",
"m. c #ada5ff",
"M. c #635ab5",
"N. c #8c84ce",
"B. c #847bc6",
"V. c Gray0",
"C. c Gray0",
"Z. c Gray0",
"A. c Gray0",
"S. c Gray0",
"D. c Gray0",
"F. c Gray0",
"G. c Gray0",
"H. c Gray0",
"J. c Gray0",
"K. c Gray0",
"L. c Gray0",
"P. c Gray0",
"I. c Gray0",
"U. c Gray0",
"Y. c Gray0",
"T. c Gray0",
"R. c Gray0",
"E. c Gray0",
"W. c Gray0",
"Q. c Gray0",
"!. c Gray0",
"~. c Gray0",
"^. c Gray0",
"/. c Gray0",
"(. c Gray0",
"). c Gray0",
"_. c Gray0",
"`. c Gray0",
"'. c Gray0",
"]. c Gray0",
"[. c Gray0",
"{. c Gray0",
"}. c Gray0",
"|. c Gray0",
" X c Gray0",
".X c Gray0",
"XX c Gray0",
"oX c Gray0",
"OX c Gray0",
"+X c Gray0",
"@X c Gray0",
"#X c Gray0",
"$X c Gray0",
"%X c Gray0",
"&X c Gray0",
"*X c Gray0",
"=X c Gray0",
"-X c Gray0",
";X c Gray0",
":X c Gray0",
">X c Gray0",
",X c Gray0",
"<X c Gray0",
"1X c Gray0",
"2X c Gray0",
"3X c Gray0",
"4X c Gray0",
"5X c Gray0",
"6X c Gray0",
"7X c Gray0",
"8X c Gray0",
"9X c Gray0",
"0X c Gray0",
"qX c Gray0",
"wX c Gray0",
"eX c Gray0",
"rX c Gray0",
"tX c Gray0",
"yX c Gray0",
"uX c Gray0",
"iX c Gray0",
"pX c Gray0",
"aX c Gray0",
"sX c Gray0",
"dX c Gray0",
"fX c Gray0",
"gX c Gray0",
"hX c Gray0",
"jX c Gray0",
"kX c Gray0",
"lX c Gray0",
"zX c Gray0",
"xX c Gray0",
"cX c Gray0",
"vX c Gray0",
"bX c Gray0",
"nX c Gray0",
"mX c Gray0",
"MX c Gray0",
"NX c Gray0",
"BX c Gray0",
"VX c Gray0",
"CX c Gray0",
"ZX c Gray0",
"AX c Gray0",
"SX c Gray0",
"DX c Gray0",
"FX c Gray0",
"GX c Gray0",
"HX c Gray0",
"JX c Gray0",
"KX c Gray0",
"LX c Gray0",
"PX c Gray0",
"IX c Gray0",
"UX c none",
/* pixels */
"UXUXUXUXUXUXUXUXUXUXUXUXUXUXUXUXUXUXUXUXUXUX",
"UXUXUXUXUXUXUXUXUXUXUXUXUXUXUXUXUXUXUXUXUXUX",
"UXUXUX= t.*.; - = UXUXUXUXUXUXUXUXUXUXUXUXUX",
"UXUXUX] O.  r 0 4 4 9 - = UXUXUXUXUXUXUXUXUX",
"UXUXUX,.  5 j . X # t B K * UXUXUXUXUXUXUXUX",
"UXUX= 2.  % H 9 V u j u L % UXUXUXUXUXUXUXUX",
"UXUX#.[   & # b v I 8 V # I ; 0 9 ; - = UXUX",
"UXUXN.  ; J 8 a 4 u C w l x X o j i Z 7 r ..",
"UX) m.  0 p O X c S 5 f Y i > B G f O z 8 ^ ",
"UX;.(   % A 6 6 m S 8 j l @ . v j K r 9 e &.",
"= 3.    d R n Y e   Z # Y & F V u d c r K $.",
"] =.  = D 6 6 r e A t @ P j o O d y 7 D ! } ",
"B.    1 2 n z M 6 B p c j F 4 B u U f g -.& ",
"g.n.y.:.E 0 < , g r z # d + b c p K 9 k ^ = ",
"o.M.f.v.v.h.b.q./ = l T ; 6 N B M j q q -.UX",
"UXUX= _ 8.p.c.x.z.4.y j + b R x d w 0 W %.UX",
"UXUXUXUXUXr & <.u.l.8       5 r f t 9 Q  .UX",
"UXUXUXUXUXUXUXUXUX>.a.w.4.+.' (     h ~ % UX",
"UXUXUXUXUXUXUXUXUX* 6.e.i.k.j.k.s.9.| 5.) UX",
"UXUXUXUXUXUXUXUXUXUXUXUX= * ` @.%.1.r.0.UXUX",
"UXUXUXUXUXUXUXUXUXUXUXUXUXUXUXUXUXUXUXUXUXUX",
"UXUXUXUXUXUXUXUXUXUXUXUXUXUXUXUXUXUXUXUXUXUX"
};
