/* XPM */
static char *magick[] = {
/* columns rows colors chars-per-pixel */
"22 22 128 2",
"   c Gray100",
".  c #515dff",
"X  c #1724ff",
"o  c #0d0d06",
"O  c #0d0900",
"+  c #090901",
"@  c #060500",
"#  c #050500",
"$  c #050100",
"%  c #0106bf",
"&  c #010500",
"*  c #010101",
"=  c #010000",
"-  c Blue",
";  c #0000fd",
":  c #0000f6",
">  c #0000f5",
",  c #0000ee",
"<  c #0000ed",
"1  c #0000e9",
"2  c #0000e8",
"3  c #0000e1",
"4  c #0000e0",
"5  c #0000dc",
"6  c #0000ca",
"7  c #0000c4",
"8  c #0000c2",
"9  c #0000aa",
"0  c #0000a6",
"q  c #0000a1",
"w  c #000099",
"e  c #000098",
"r  c #000084",
"t  c #00007f",
"y  c #000077",
"u  c #000074",
"i  c #000072",
"p  c #00006f",
"a  c #00006a",
"s  c #000067",
"d  c #000056",
"f  c #000051",
"g  c #00004e",
"h  c #00004c",
"j  c #000049",
"k  c #000046",
"l  c #000044",
"z  c #00003f",
"x  c #00003c",
"c  c #000034",
"v  c #00002f",
"b  c #00002c",
"n  c #000027",
"m  c #000022",
"M  c #00001f",
"N  c #00001b",
"B  c #000017",
"V  c #000013",
"C  c #000012",
"Z  c #00000e",
"A  c #00000d",
"S  c #000009",
"D  c #000006",
"F  c #000005",
"G  c Transparent",
"H  c Gray0",
"J  c #c0c0c0",
"K  c Gray0",
"L  c Gray0",
"P  c Gray0",
"I  c Gray0",
"U  c Gray0",
"Y  c Gray0",
"T  c Gray0",
"R  c Gray0",
"E  c Gray0",
"W  c Gray0",
"Q  c Gray0",
"!  c Gray0",
"~  c Gray0",
"^  c Gray0",
"/  c Gray0",
"(  c Gray0",
")  c Gray0",
"_  c Gray0",
"`  c Gray0",
"'  c Gray0",
"]  c Gray0",
"[  c Gray0",
"{  c Gray0",
"}  c Gray0",
"|  c Gray0",
" . c Gray0",
".. c Gray0",
"X. c Gray0",
"o. c Gray0",
"O. c Gray0",
"+. c Gray0",
"@. c Gray0",
"#. c Gray0",
"$. c Gray0",
"%. c Gray0",
"&. c Gray0",
"*. c Gray0",
"=. c Gray0",
"-. c Gray0",
";. c Gray0",
":. c Gray0",
">. c Gray0",
",. c Gray0",
"<. c Gray0",
"1. c Gray0",
"2. c Gray0",
"3. c Gray0",
"4. c Gray0",
"5. c Gray0",
"6. c Gray0",
"7. c Gray0",
"8. c Gray0",
"9. c Gray0",
"0. c Gray0",
"q. c Gray0",
"w. c Gray0",
"e. c Gray0",
"r. c Gray0",
"t. c Gray0",
"y. c Gray0",
"u. c Gray0",
/* pixels */
"J J J J J J J J J J J J J J J J J J J J J J ",
"J J J J J J J J J J J J J J J J J J J J J J ",
"J J J J J J J J J J J J J J J J J J J J J J ",
"J J J J J J J J J J J J J J J J J J J J J J ",
"J J J J . . J J J J J . : - X . J J J J J J ",
"J J J J . 5 . J J J 3 3 s d p 5 5 J J J J J ",
"J J J J X 6 k J J X 6 . J J J . - d J J J J ",
"J J J J X 5 J J J X c J J J J J X r J J J J ",
"J J J J X , . J J J J J J J J J 5 d J J J J ",
"J J J J . % J J J J J J J J J . , d J J J J ",
"J J J J . r . J J J J J J J . , v J J J J J ",
"J J J J . t J J J J J J J . , M J J J J J J ",
"J J J J . g J J J J J J J 3 c J J J J J J J ",
"J J J J J v J J J J J J . , d J J J J J J J ",
"J J J J J . J J J J J J J k J J J J J J J J ",
"J J J J J J J J J J J J J J J J J J J J J J ",
"J J J J . 6 d J J J J J . 3 . J J J J J J J ",
"J J J J . d J J J J J J J g v J J J J J J J ",
"J J J J J J J J J J J J J J J J J J J J J J ",
"J J J J J J J J J J J J J J J J J J J J J J ",
"J J J J J J J J J J J J J J J J J J J J J J ",
"J J J J J J J J J J J J J J J J J J J J J J "
};
