/* XPM */
static char * core_xpm[] = {
"23 23 232 2",
"  	c None",
". 	c #000000",
"+ 	c #0C0B02",
"@ 	c #8B813E",
"# 	c #9F8E23",
"$ 	c #5D5313",
"% 	c #1C1905",
"& 	c #817217",
"* 	c #7B6E16",
"= 	c #52490F",
"- 	c #2F2A08",
"; 	c #C6B85E",
"> 	c #DDC532",
", 	c #8D7D1E",
"' 	c #2B2708",
") 	c #B4A021",
"! 	c #E0C729",
"~ 	c #796C16",
"{ 	c #433C0E",
"] 	c #9A8923",
"^ 	c #D6BE31",
"/ 	c #EFD852",
"( 	c #EDD236",
"_ 	c #E0C632",
": 	c #C6AE2C",
"< 	c #8D7B20",
"[ 	c #3B340C",
"} 	c #A08F1D",
"| 	c #9D8C1D",
"1 	c #D0B826",
"2 	c #302A09",
"3 	c #161404",
"4 	c #6F6419",
"5 	c #DCC333",
"6 	c #F7DC35",
"7 	c #F8DD33",
"8 	c #F6DC2F",
"9 	c #F3D92E",
"0 	c #EFD42F",
"a 	c #EACE2F",
"b 	c #E2C532",
"c 	c #C1A82D",
"d 	c #5A4E14",
"e 	c #2B2608",
"f 	c #A18F1D",
"g 	c #6F6219",
"h 	c #EBCF35",
"i 	c #FADE34",
"j 	c #FADF2E",
"k 	c #FADF2A",
"l 	c #F9DF28",
"m 	c #F7DD27",
"n 	c #E6CD26",
"o 	c #E5CB28",
"p 	c #E9CC2C",
"q 	c #DFC12F",
"r 	c #BA9F2C",
"s 	c #4D4212",
"t 	c #544A10",
"u 	c #DEC333",
"v 	c #F9DC33",
"w 	c #F9DE2D",
"x 	c #837515",
"y 	c #B3A11A",
"z 	c #655B0D",
"A 	c #F6DC21",
"B 	c #BCA81A",
"C 	c #584E0E",
"D 	c #807115",
"E 	c #A38D1F",
"F 	c #D5B62D",
"G 	c #9F8525",
"H 	c #262008",
"I 	c #8B7920",
"J 	c #F7D836",
"K 	c #F8DB2E",
"L 	c #F9DD28",
"M 	c #877813",
"N 	c #191603",
"O 	c #C5B219",
"P 	c #F9E225",
"Q 	c #D7C11E",
"R 	c #2D2806",
"S 	c #383109",
"T 	c #E2C427",
"U 	c #DBBA2B",
"V 	c #BD9D2A",
"W 	c #4E3F12",
"X 	c #C3A82C",
"Y 	c #F6D632",
"Z 	c #F7DA2A",
"` 	c #F8DD24",
" .	c #C6B219",
"..	c #DEC919",
"+.	c #A89A27",
"@.	c #F3E251",
"#.	c #C3B231",
"$.	c #C4AF1A",
"%.	c #7A6B10",
"&.	c #937F18",
"*.	c #DCBB28",
"=.	c #C6A529",
"-.	c #755F1B",
";.	c #2C260A",
">.	c #D4B42F",
",.	c #F4D42F",
"'.	c #F6D828",
").	c #F7DC23",
"!.	c #F9DF1E",
"~.	c #F7E028",
"{.	c #FBED7D",
"].	c #F4EB9D",
"^.	c #CABB4E",
"/.	c #AD9A17",
"(.	c #C0A81A",
"_.	c #D8BA20",
":.	c #DAB926",
"<.	c #C5A326",
"[.	c #8B6F1F",
"}.	c #181306",
"|.	c #31290B",
"1.	c #D6B52F",
"2.	c #F1CF2D",
"3.	c #F4D527",
"4.	c #F6DA22",
"5.	c #F7DC1E",
"6.	c #E8D541",
"7.	c #F5EDAF",
"8.	c #FAF3BD",
"9.	c #CDBE51",
"0.	c #695D0D",
"a.	c #8E7B13",
"b.	c #DCBC20",
"c.	c #D6B324",
"d.	c #BF9C24",
"e.	c #90711F",
"f.	c #1D1607",
"g.	c #C5A52A",
"h.	c #EBC82C",
"i.	c #F0D026",
"j.	c #F3D522",
"k.	c #F5D91E",
"l.	c #E9D237",
"m.	c #D2C774",
"n.	c #CABE6D",
"o.	c #918322",
"p.	c #8E7C11",
"q.	c #B59B18",
"r.	c #DDBB20",
"s.	c #CFAB22",
"t.	c #B59122",
"u.	c #785D1A",
"v.	c #130E04",
"w.	c #9F8421",
"x.	c #E3BE2B",
"y.	c #E9C726",
"z.	c #EECD22",
"A.	c #D4B91B",
"B.	c #8E7C18",
"C.	c #796A26",
"D.	c #625617",
"E.	c #63520E",
"F.	c #A18A14",
"G.	c #D5B51D",
"H.	c #D7B420",
"I.	c #C4A021",
"J.	c #A5811F",
"K.	c #5D4613",
"L.	c #604F13",
"M.	c #D2AC29",
"N.	c #E0BB26",
"O.	c #CFAF1E",
"P.	c #342C07",
"Q.	c #652F27",
"R.	c #97433F",
"S.	c #652F2A",
"T.	c #92423A",
"U.	c #59311D",
"V.	c #6C5A0F",
"W.	c #C4A11E",
"X.	c #B6901F",
"Y.	c #8E6C1B",
"Z.	c #3A2B0B",
"`.	c #201A06",
" +	c #977A1D",
".+	c #D2AC26",
"++	c #6E5B12",
"@+	c #211509",
"#+	c #B94E4C",
"$+	c #C65353",
"%+	c #9F4444",
"&+	c #BE4F4F",
"*+	c #7B3735",
"=+	c #1C1704",
"-+	c #8A6D16",
";+	c #97741A",
">+	c #5B4411",
",+	c #141003",
"'+	c #3B300A",
")+	c #A5821F",
"!+	c #796115",
"~+	c #46211A",
"{+	c #D05757",
"]+	c #C85454",
"^+	c #BD4F4F",
"/+	c #B84D4D",
"(+	c #713433",
"_+	c #161104",
":+	c #634B10",
"<+	c #634911",
"[+	c #221905",
"}+	c #332908",
"|+	c #876918",
"1+	c #B5603C",
"2+	c #CB5454",
"3+	c #CA5454",
"4+	c #BF4F4F",
"5+	c #9D4343",
"6+	c #6D392D",
"7+	c #735613",
"8+	c #553E0E",
"9+	c #1F1804",
"0+	c #4D2E16",
"a+	c #944339",
"b+	c #A74646",
"c+	c #8E3E3E",
"d+	c #6F3B2A",
"e+	c #4F3613",
"f+	c #2C2106",
"g+	c #0C0505",
"h+	c #0A0404",
"i+	c #080502",
"                . .                           ",
"          . .     . .                         ",
"          .         . .                       ",
"          .           .                       ",
"        .             .                       ",
"        +           @ # $                     ",
"  % & * =         - ; > , '                   ",
"    ) ! ~     { ] ^ / ( _ : < [               ",
"  } | 1 2 3 4 5 6 7 8 9 0 a b c d             ",
"  e   f = g h i j k l m n o p q r s           ",
"        t u v w x y z A B C D E F G H         ",
"        I J K L M N O P Q R S T U V W         ",
"        X Y Z `  ...+.@.#.$.%.&.*.=.-.        ",
"      ;.>.,.'.).!.~.{.].^./.(._.:.<.[.}.      ",
"      |.1.2.3.4.5.6.7.8.9.0.a.b.c.d.e.f.      ",
"      H g.h.i.j.k.l.m.n.o.p.q.r.s.t.u.v.      ",
"        w.x.y.z.A.B.C.D.E.F.G.H.I.J.K.        ",
"        L.M.N.O.P.Q.R.S.T.U.V.W.X.Y.Z.        ",
"        `. +.+++@+#+$+%+&+*+=+-+;+>+,+        ",
"          '+)+!+~+{+]+^+/+(+_+:+<+[+          ",
"            }+|+1+2+3+4+5+6+7+8+9+            ",
"                0+a+b+c+d+e+f+                ",
"                    g+h+i+                    "};
