/* XPM */
static char *sv16[] = {
/* width height num_colors chars_per_pixel */
"    26    16        2            1",
/* colors */
". c #007fe5",
"# c #ffcc00",
/* pixels */
".........###..............",
".........###..............",
".........###..............",
".........###..............",
".........###..............",
".........###..............",
".........###..............",
"##########################",
"##########################",
"##########################",
".........###..............",
".........###..............",
".........###..............",
".........###..............",
".........###..............",
".........###.............."
};
