/* XPM */
static char * step_into_xpm[] = {
"23 23 14 1",
" 	c None",
".	c #000000",
"+	c #EAE4D0",
"@	c #EEEADC",
"#	c #CCC4AF",
"$	c #E2D8B9",
"%	c #9F9679",
"&	c #AFA586",
"*	c #C0B591",
"=	c #D0A5A5",
"-	c #E7D2D2",
";	c #8F866D",
">	c #A75656",
",	c #773E3E",
"                       ",
"                       ",
"      .....            ",
"     .+@@#$.           ",
"     .+%&&*&.          ",
"      ...+**.          ",
"     ..  .$*.  ..      ",
"    .=-. .$&. .-=.     ",
"   .--.  .$&.  .=-.    ",
"   .-. .++$&&&. .=.    ",
"   .-.  .%%%;.  .-.    ",
"   .=.   .;;.   .-.    ",
"  .>.     ..     .>.   ",
"  .=.            .=.   ",
"   .=.          .=.    ",
"   .>.          .>.    ",
"   .,.          .,.    ",
"   .>.          .>.    ",
"   .>>.        .>>.    ",
"    .,,.      .,,.     ",
"     ..        ..      ",
"                       ",
"                       "};
