/* XPM */
static char * step_over_xpm[] = {
"23 23 15 1",
" 	c None",
".	c #000000",
"+	c #EAE4D0",
"@	c #EEEADC",
"#	c #CCC4AF",
"$	c #E2D8B9",
"%	c #AFA586",
"&	c #9F9679",
"*	c #8F866D",
"=	c #C0B591",
"-	c #D0A5A5",
";	c #E7D2D2",
">	c #010100",
",	c #A75656",
"'	c #773E3E",
"                       ",
"     ............      ",
"   ..++@@@#@##$$$..    ",
"  .+@%%&%&%&*&**=%%.   ",
"  .@=%..........&%=.   ",
" .+==.          .&=%.  ",
" .#=.   ..  ..   .$%.  ",
" .#%.  .-;>.;-.  .$%.  ",
" .%%. .;;.  .-;.++$%%%.",
"  ..  .;.    .-..&&&*. ",
"      .;.    .;. .**.  ",
"      .-.    .;.  ..   ",
"     .,.      .,.      ",
"     .-.      .-.      ",
"      .-.    .,.       ",
"      .,.    .,.       ",
"      .'.    .'.       ",
"      .,.    .,.       ",
"      .,,.  .,,.       ",
"       .''..''.        ",
"        ..  ..         ",
"                       ",
"                       "};
